<svg width="48" height="48" viewBox="0 0 48 48" fill="none" xmlns="http://www.w3.org/2000/svg">
<path fill-rule="evenodd" clip-rule="evenodd" d="M20.633 18.8141C21.113 18.6361 22.06 18.7451 22.31 19.2871C22.523 19.7491 22.706 20.5281 22.716 20.3621C22.74 19.9931 22.692 19.1951 22.853 18.7781C22.97 18.4741 23.2 18.1881 23.539 18.0871C23.824 18.0011 24.159 17.9711 24.455 18.0321C24.768 18.0961 25.097 18.3191 25.22 18.5311C25.582 19.1541 25.588 20.4301 25.605 20.3621C25.669 20.0901 25.675 19.1331 25.888 18.7781C26.029 18.5431 26.385 18.3331 26.575 18.2991C26.869 18.2471 27.231 18.2311 27.539 18.2911C27.788 18.3401 28.125 18.6351 28.216 18.7781C28.435 19.1221 28.558 20.0941 28.595 20.4361C28.611 20.5771 28.669 20.0431 28.888 19.7001C29.294 19.0611 30.732 18.9371 30.786 20.3391C30.812 20.9931 30.806 20.9631 30.806 21.4031C30.806 21.9191 30.794 22.2311 30.766 22.6051C30.736 23.0041 30.65 23.9091 30.525 24.3471C30.439 24.6481 30.154 25.3251 29.872 25.7311C29.872 25.7311 28.798 26.9811 28.681 27.5431C28.564 28.1061 28.603 28.1101 28.579 28.5081C28.556 28.9071 28.7 29.4311 28.7 29.4311C28.7 29.4311 27.899 29.5351 27.466 29.4651C27.075 29.4031 26.591 28.6251 26.466 28.3871C26.294 28.0591 25.927 28.1221 25.784 28.3641C25.56 28.7471 25.075 29.4341 24.734 29.4771C24.065 29.5611 22.679 29.5071 21.594 29.4971C21.594 29.4971 21.779 28.4861 21.367 28.1391C21.062 27.8791 20.537 27.3551 20.223 27.0791L19.391 26.1581C19.108 25.7981 18.389 25.2291 18.148 24.1731C17.935 23.2371 17.956 22.7781 18.185 22.4031C18.417 22.0221 18.855 21.8141 19.039 21.7781C19.247 21.7361 19.731 21.7391 19.914 21.8401C20.137 21.9631 20.227 21.9991 20.402 22.2311C20.632 22.5381 20.714 22.6871 20.615 22.3521C20.539 22.0901 20.293 21.7571 20.181 21.3821C20.072 21.0211 19.78 20.4391 19.801 19.8561C19.809 19.6351 19.904 19.0851 20.633 18.8141Z" fill="white"/>
<path fill-rule="evenodd" clip-rule="evenodd" d="M20.633 18.8141C21.113 18.6361 22.06 18.7451 22.31 19.2871C22.523 19.7491 22.706 20.5281 22.716 20.3621C22.74 19.9931 22.692 19.1951 22.853 18.7781C22.97 18.4741 23.2 18.1881 23.539 18.0871C23.824 18.0011 24.159 17.9711 24.455 18.0321C24.768 18.0961 25.097 18.3191 25.22 18.5311C25.582 19.1541 25.588 20.4301 25.605 20.3621C25.669 20.0901 25.675 19.1331 25.888 18.7781C26.029 18.5431 26.385 18.3331 26.575 18.2991C26.869 18.2471 27.231 18.2311 27.539 18.2911C27.788 18.3401 28.125 18.6351 28.216 18.7781C28.435 19.1221 28.558 20.0941 28.595 20.4361C28.611 20.5771 28.669 20.0431 28.888 19.7001C29.294 19.0611 30.732 18.9371 30.786 20.3391C30.812 20.9931 30.806 20.9631 30.806 21.4031C30.806 21.9191 30.794 22.2311 30.766 22.6051C30.736 23.0041 30.65 23.9091 30.525 24.3471C30.439 24.6481 30.154 25.3251 29.872 25.7311C29.872 25.7311 28.798 26.9811 28.681 27.5431C28.564 28.1061 28.603 28.1101 28.579 28.5081C28.556 28.9071 28.7 29.4311 28.7 29.4311C28.7 29.4311 27.899 29.5351 27.466 29.4651C27.075 29.4031 26.591 28.6251 26.466 28.3871C26.294 28.0591 25.927 28.1221 25.784 28.3641C25.56 28.7471 25.075 29.4341 24.734 29.4771C24.065 29.5611 22.679 29.5071 21.594 29.4971C21.594 29.4971 21.779 28.4861 21.367 28.1391C21.062 27.8791 20.537 27.3551 20.223 27.0791L19.391 26.1581C19.108 25.7981 18.389 25.2291 18.148 24.1731C17.935 23.2371 17.956 22.7781 18.185 22.4031C18.417 22.0221 18.855 21.8141 19.039 21.7781C19.247 21.7361 19.731 21.7391 19.914 21.8401C20.137 21.9631 20.227 21.9991 20.402 22.2311C20.632 22.5381 20.714 22.6871 20.615 22.3521C20.539 22.0901 20.293 21.7571 20.181 21.3821C20.072 21.0211 19.78 20.4391 19.801 19.8561C19.809 19.6351 19.904 19.0851 20.633 18.8141V18.8141Z" stroke="black" stroke-width="0.75" stroke-linejoin="round"/>
<path d="M27.626 26.5124V23.0534" stroke="black" stroke-width="0.75" stroke-linecap="round"/>
<path d="M25.6107 26.5241L25.5947 23.0511" stroke="black" stroke-width="0.75" stroke-linecap="round"/>
<path d="M23.6143 23.0827L23.6353 26.5087" stroke="black" stroke-width="0.75" stroke-linecap="round"/>
</svg>
