<svg width="48" height="48" viewBox="0 0 48 48" fill="none" xmlns="http://www.w3.org/2000/svg">
<path fill-rule="evenodd" clip-rule="evenodd" d="M19.8929 27.9025C19.6089 27.5435 19.2639 26.8095 18.6499 25.9185C18.3019 25.4145 17.4389 24.4655 17.1819 23.9835C16.9589 23.5575 16.9829 23.3665 17.0359 23.0135C17.1299 22.3855 17.7739 21.8965 18.4609 21.9625C18.9799 22.0115 19.4199 22.3545 19.8159 22.6785C20.0549 22.8735 20.3489 23.2525 20.5259 23.4665C20.6889 23.6625 20.7289 23.7435 20.9029 23.9755C21.1329 24.2825 21.2049 24.4345 21.1169 24.0965C21.0459 23.6005 20.9299 22.7535 20.7619 22.0045C20.6339 21.4365 20.6029 21.3475 20.4809 20.9115C20.3519 20.4475 20.2859 20.1225 20.1649 19.6305C20.0809 19.2825 19.9299 18.5715 19.8889 18.1715C19.8319 17.6245 19.8019 16.7325 20.1529 16.3225C20.4279 16.0015 21.0589 15.9045 21.4499 16.1025C21.9619 16.3615 22.2529 17.1055 22.3859 17.4025C22.6249 17.9365 22.7729 18.5535 22.9019 19.3635C23.0659 20.3945 23.3679 21.8255 23.3779 22.1265C23.4019 21.7575 23.3099 20.9805 23.3739 20.6265C23.4319 20.3055 23.7019 19.9325 24.0399 19.8315C24.3259 19.7465 24.6609 19.7155 24.9559 19.7765C25.2689 19.8405 25.5989 20.0645 25.7219 20.2755C26.0839 20.8995 26.0909 22.1745 26.1059 22.1065C26.1919 21.7305 26.1769 20.8775 26.3899 20.5225C26.5299 20.2885 26.8869 20.0775 27.0769 20.0435C27.3709 19.9915 27.7319 19.9755 28.0409 20.0355C28.2899 20.0845 28.6269 20.3805 28.7179 20.5225C28.9359 20.8665 29.0599 21.8395 29.0969 22.1805C29.1119 22.3215 29.1709 21.7885 29.3899 21.4445C29.7959 20.8055 31.2329 20.6815 31.2879 22.0835C31.3129 22.7375 31.3079 22.7075 31.3079 23.1475C31.3079 23.6645 31.2959 23.9755 31.2679 24.3495C31.2369 24.7495 31.1509 25.6535 31.0259 26.0915C30.9399 26.3925 30.6549 27.0695 30.3739 27.4755C30.3739 27.4755 29.2999 28.7255 29.1829 29.2885C29.0649 29.8505 29.1039 29.8545 29.0809 30.2535C29.0579 30.6515 29.2019 31.1755 29.2019 31.1755C29.2019 31.1755 28.3999 31.2795 27.9679 31.2105C27.5769 31.1475 27.0929 30.3695 26.9679 30.1315C26.7959 29.8035 26.4289 29.8665 26.2859 30.1085C26.0609 30.4915 25.5769 31.1785 25.2349 31.2215C24.5669 31.3055 23.1809 31.2525 22.0959 31.2415C22.0959 31.2415 22.2809 30.2305 21.8689 29.8835C21.5639 29.6245 21.0389 29.0995 20.7249 28.8235L19.8929 27.9025Z" fill="white"/>
<path fill-rule="evenodd" clip-rule="evenodd" d="M19.8929 27.9025C19.6089 27.5435 19.2639 26.8095 18.6499 25.9185C18.3019 25.4145 17.4389 24.4655 17.1819 23.9835C16.9589 23.5575 16.9829 23.3665 17.0359 23.0135C17.1299 22.3855 17.7739 21.8965 18.4609 21.9625C18.9799 22.0115 19.4199 22.3545 19.8159 22.6785C20.0549 22.8735 20.3489 23.2525 20.5259 23.4665C20.6889 23.6625 20.7289 23.7435 20.9029 23.9755C21.1329 24.2825 21.2049 24.4345 21.1169 24.0965C21.0459 23.6005 20.9299 22.7535 20.7619 22.0045C20.6339 21.4365 20.6029 21.3475 20.4809 20.9115C20.3519 20.4475 20.2859 20.1225 20.1649 19.6305C20.0809 19.2825 19.9299 18.5715 19.8889 18.1715C19.8319 17.6245 19.8019 16.7325 20.1529 16.3225C20.4279 16.0015 21.0589 15.9045 21.4499 16.1025C21.9619 16.3615 22.2529 17.1055 22.3859 17.4025C22.6249 17.9365 22.7729 18.5535 22.9019 19.3635C23.0659 20.3945 23.3679 21.8255 23.3779 22.1265C23.4019 21.7575 23.3099 20.9805 23.3739 20.6265C23.4319 20.3055 23.7019 19.9325 24.0399 19.8315C24.3259 19.7465 24.6609 19.7155 24.9559 19.7765C25.2689 19.8405 25.5989 20.0645 25.7219 20.2755C26.0839 20.8995 26.0909 22.1745 26.1059 22.1065C26.1919 21.7305 26.1769 20.8775 26.3899 20.5225C26.5299 20.2885 26.8869 20.0775 27.0769 20.0435C27.3709 19.9915 27.7319 19.9755 28.0409 20.0355C28.2899 20.0845 28.6269 20.3805 28.7179 20.5225C28.9359 20.8665 29.0599 21.8395 29.0969 22.1805C29.1119 22.3215 29.1709 21.7885 29.3899 21.4445C29.7959 20.8055 31.2329 20.6815 31.2879 22.0835C31.3129 22.7375 31.3079 22.7075 31.3079 23.1475C31.3079 23.6645 31.2959 23.9755 31.2679 24.3495C31.2369 24.7495 31.1509 25.6535 31.0259 26.0915C30.9399 26.3925 30.6549 27.0695 30.3739 27.4755C30.3739 27.4755 29.2999 28.7255 29.1829 29.2885C29.0649 29.8505 29.1039 29.8545 29.0809 30.2535C29.0579 30.6515 29.2019 31.1755 29.2019 31.1755C29.2019 31.1755 28.3999 31.2795 27.9679 31.2105C27.5769 31.1475 27.0929 30.3695 26.9679 30.1315C26.7959 29.8035 26.4289 29.8665 26.2859 30.1085C26.0609 30.4915 25.5769 31.1785 25.2349 31.2215C24.5669 31.3055 23.1809 31.2525 22.0959 31.2415C22.0959 31.2415 22.2809 30.2305 21.8689 29.8835C21.5639 29.6245 21.0389 29.0995 20.7249 28.8235L19.8929 27.9025V27.9025Z" stroke="black" stroke-width="0.75" stroke-linecap="round" stroke-linejoin="round"/>
<path d="M28.1279 28.257V24.798" stroke="black" stroke-width="0.75" stroke-linecap="round"/>
<path d="M26.1122 28.2687L26.0962 24.7957" stroke="black" stroke-width="0.75" stroke-linecap="round"/>
<path d="M24.1162 24.8273L24.1372 28.2533" stroke="black" stroke-width="0.75" stroke-linecap="round"/>
</svg>
