<svg width="24" height="24" viewBox="0 0 24 24" fill="none" xmlns="http://www.w3.org/2000/svg">
<path d="M21.6302 16.4508H7.67314L8.37392 15.0234L20.0177 15.0023C20.4114 15.0023 20.7489 14.7211 20.8192 14.332L22.4317 5.30625C22.4739 5.06953 22.4106 4.82578 22.256 4.64062C22.1795 4.5495 22.0841 4.4761 21.9765 4.42551C21.8688 4.37492 21.7515 4.34835 21.6325 4.34766L6.82002 4.29844L6.69346 3.70312C6.61377 3.32344 6.27158 3.04688 5.88252 3.04688H2.26143C2.042 3.04688 1.83156 3.13404 1.67641 3.2892C1.52125 3.44436 1.43408 3.65479 1.43408 3.87422C1.43408 4.09364 1.52125 4.30408 1.67641 4.45924C1.83156 4.6144 2.042 4.70156 2.26143 4.70156H5.21221L5.76533 7.33125L7.12705 13.9242L5.37393 16.7859C5.28288 16.9088 5.22805 17.0547 5.21562 17.2071C5.20319 17.3596 5.23368 17.5124 5.30361 17.6484C5.44424 17.9273 5.72783 18.1031 6.04189 18.1031H7.51377C7.19998 18.5199 7.0305 19.0275 7.03096 19.5492C7.03096 20.8758 8.10908 21.9539 9.43564 21.9539C10.7622 21.9539 11.8403 20.8758 11.8403 19.5492C11.8403 19.0266 11.6669 18.518 11.3575 18.1031H15.1333C14.8195 18.5199 14.65 19.0275 14.6505 19.5492C14.6505 20.8758 15.7286 21.9539 17.0552 21.9539C18.3817 21.9539 19.4599 20.8758 19.4599 19.5492C19.4599 19.0266 19.2864 18.518 18.977 18.1031H21.6325C22.0872 18.1031 22.4599 17.7328 22.4599 17.2758C22.4585 17.0566 22.3705 16.8468 22.2151 16.6923C22.0596 16.5377 21.8494 16.4509 21.6302 16.4508ZM7.16455 5.92969L20.6599 5.97422L19.338 13.3758L8.73721 13.3945L7.16455 5.92969ZM9.43564 20.2898C9.02783 20.2898 8.69502 19.957 8.69502 19.5492C8.69502 19.1414 9.02783 18.8086 9.43564 18.8086C9.84346 18.8086 10.1763 19.1414 10.1763 19.5492C10.1763 19.7456 10.0982 19.934 9.95934 20.0729C9.82045 20.2118 9.63207 20.2898 9.43564 20.2898ZM17.0552 20.2898C16.6474 20.2898 16.3145 19.957 16.3145 19.5492C16.3145 19.1414 16.6474 18.8086 17.0552 18.8086C17.463 18.8086 17.7958 19.1414 17.7958 19.5492C17.7958 19.7456 17.7178 19.934 17.5789 20.0729C17.44 20.2118 17.2516 20.2898 17.0552 20.2898Z" fill="#2A3135"/>
</svg>
