<svg width="24" height="24" viewBox="0 0 24 24" fill="none" xmlns="http://www.w3.org/2000/svg">
<path d="M20.5451 5.61257C20.5334 5.59148 20.517 5.57039 20.4982 5.55398C20.381 5.43679 20.1912 5.43679 20.074 5.55398L16.0357 9.59226L14.4443 8.00085L18.485 3.96023C18.5037 3.94148 18.5178 3.92273 18.5318 3.90164C18.6162 3.75867 18.5693 3.57585 18.4264 3.49148C16.1248 2.1321 13.1107 2.44382 11.1303 4.42195C9.55995 5.99226 9.03964 8.21882 9.57167 10.2204L2.70448 17.0876C2.63417 17.1579 2.63886 17.2727 2.71152 17.3454L6.68886 21.3227C6.76152 21.3954 6.8787 21.4001 6.94667 21.3298L13.8115 14.4649C15.8154 14.9993 18.042 14.4813 19.6146 12.9087C21.5928 10.9282 21.9045 7.91414 20.5451 5.61257ZM18.4217 11.7134C17.06 13.0751 15.0162 13.3376 13.392 12.5009L13.1857 12.7071L13.1834 12.7048L6.76152 19.129L4.90527 17.2727L10.2982 11.8798C10.2982 11.8798 10.2982 11.8821 10.3006 11.8821L11.5381 10.6446C10.7014 9.02039 10.9639 6.97664 12.3256 5.61492C12.7648 5.17534 13.2937 4.83575 13.8761 4.61934C14.4586 4.40294 15.0809 4.31482 15.7006 4.36101L12.5857 7.47351C12.445 7.61436 12.366 7.80529 12.366 8.00437C12.366 8.20345 12.445 8.39438 12.5857 8.53523L15.5037 11.4532C15.6446 11.5939 15.8355 11.6729 16.0346 11.6729C16.2336 11.6729 16.4246 11.5939 16.5654 11.4532L19.6779 8.3407C19.7646 9.55476 19.3404 10.7969 18.4217 11.7134Z" fill="#2A3135"/>
</svg>
