<svg width="80" height="80" viewBox="0 0 80 80" fill="none" xmlns="http://www.w3.org/2000/svg">
<g clip-path="url(#clip0)">
<path d="M50.8097 64.9825V72.1717C50.8097 74.1325 49.2205 75.7217 47.2597 75.7217H4.7458C2.78502 75.7217 1.1958 74.1325 1.1958 72.1717V64.9825C1.1958 63.0234 2.78502 61.4341 4.7458 61.4341H47.2597C49.2203 61.4341 50.8097 63.0234 50.8097 64.9825Z" fill="#DD9F3A"/>
<path d="M50.8099 64.9827V72.1719C50.8099 74.005 49.4199 75.5147 47.6361 75.7028C47.5118 75.7156 47.3874 75.7219 47.2599 75.7219H13.483C11.5239 75.7219 9.93457 74.1327 9.93457 72.1719V64.9827C9.93457 63.0236 11.5238 61.4342 13.483 61.4342H47.2599C49.2205 61.4342 50.8099 63.0236 50.8099 64.9827Z" fill="#F4B74A"/>
<path d="M50.8097 64.9826V72.1719C50.8097 74.005 49.4197 75.5147 47.636 75.7028C47.3124 75.7156 46.9888 75.7219 46.6652 75.7219C43.2347 75.7219 39.8042 75.0156 36.6097 73.6001C34.4656 72.6517 32.4316 71.3828 30.573 69.7967C30.0756 69.3726 29.5942 68.9264 29.1239 68.4576C27.0246 66.3583 25.3811 63.9767 24.1919 61.4342H47.2597C49.2203 61.4342 50.8097 63.0236 50.8097 64.9826Z" fill="#DD9F3A"/>
<path d="M53.2008 50.6937V57.883C53.2008 59.8437 51.6116 61.433 49.6508 61.433H7.13691C5.17613 61.433 3.58691 59.8437 3.58691 57.883V50.6937C3.58691 48.7347 5.17613 47.1453 7.13691 47.1453H49.6508C51.6114 47.1453 53.2008 48.7345 53.2008 50.6937Z" fill="#DD9F3A"/>
<path d="M50.8099 50.6934V57.8827C50.8099 59.8434 49.2207 61.4327 47.2599 61.4327H13.483C11.5239 61.4327 9.93457 59.8434 9.93457 57.8827V50.6934C9.93457 48.7344 11.5238 47.145 13.483 47.145H47.2599C49.2205 47.145 50.8099 48.7342 50.8099 50.6934Z" fill="#F4B74A"/>
<path d="M50.81 50.6935V57.8827C50.81 59.8435 49.2208 61.4327 47.26 61.4327H26.58C24.4806 56.9453 23.7983 51.9575 24.5348 47.145H47.26C49.2206 47.145 50.81 48.7342 50.81 50.6935Z" fill="#DD9F3A"/>
<path d="M50.8097 7.82751V15.0167C50.8097 16.9775 49.2205 18.5667 47.2597 18.5667H4.7458C2.78502 18.5667 1.1958 16.9775 1.1958 15.0167V7.82751C1.1958 5.86844 2.78502 4.27907 4.7458 4.27907H47.2597C49.2203 4.27907 50.8097 5.86829 50.8097 7.82751Z" fill="#DD9F3A"/>
<path d="M50.8099 7.82751V15.0167C50.8099 16.9775 49.2207 18.5667 47.2599 18.5667H13.483C11.5239 18.5667 9.93457 16.9775 9.93457 15.0167V7.82751C9.93457 5.86844 11.5238 4.27907 13.483 4.27907H47.2599C49.2205 4.27907 50.8099 5.86829 50.8099 7.82751Z" fill="#F4B74A"/>
<path d="M44.974 4.27844H39.7671V18.5677H44.974V4.27844Z" fill="#F9C662"/>
<path d="M35.9418 4.27844H33.3384V18.5677H35.9418V4.27844Z" fill="#F9C662"/>
<path d="M57.1862 22.1162V29.3055C57.1862 31.2662 55.597 32.8555 53.6362 32.8555H11.1223C9.16148 32.8555 7.57227 31.2662 7.57227 29.3055V22.1162C7.57227 20.1572 9.16148 18.5678 11.1223 18.5678H53.6362C55.5971 18.5678 57.1862 20.1572 57.1862 22.1162Z" fill="#DD9F3A"/>
<path d="M57.1859 22.1164V29.3056C57.1859 31.2664 55.5966 32.8556 53.6359 32.8556H19.859C17.8999 32.8556 16.3105 31.2664 16.3105 29.3056V22.1164C16.3105 20.1573 17.8998 18.568 19.859 18.568H53.6359C55.5966 18.568 57.1859 20.1573 57.1859 22.1164Z" fill="#F4B74A"/>
<path d="M51.2454 18.5681H46.0386V32.8574H51.2454V18.5681Z" fill="#F9C662"/>
<path d="M42.2113 18.5681H39.6079V32.8574H42.2113V18.5681Z" fill="#F9C662"/>
<path d="M57.1863 26.9831V29.3056C57.1863 31.2664 55.5971 32.8556 53.6363 32.8556H33.645C40.1313 26.7408 49.106 24.7833 57.1863 26.9831Z" fill="#DD9F3A"/>
<path d="M50.8097 36.4048V43.5941C50.8097 45.5548 49.2205 47.1441 47.2597 47.1441H4.7458C2.78502 47.1441 1.1958 45.5548 1.1958 43.5941V36.4048C1.1958 34.4458 2.78502 32.8564 4.7458 32.8564H47.2597C49.2203 32.8564 50.8097 34.4458 50.8097 36.4048Z" fill="#DD9F3A"/>
<path d="M50.8099 36.4056V43.5948C50.8099 45.5556 49.2207 47.1448 47.2599 47.1448H13.483C11.5239 47.1448 9.93457 45.5556 9.93457 43.5948V36.4056C9.93457 34.4466 11.5238 32.8572 13.483 32.8572H47.2599C49.2205 32.8573 50.8099 34.4466 50.8099 36.4056Z" fill="#F4B74A"/>
<path d="M50.8098 36.4056V43.5948C50.8098 45.5556 49.2206 47.1448 47.2598 47.1448H22.1436C22.9136 42.1044 25.2409 37.2569 29.1225 33.3753C29.2993 33.1984 29.4779 33.0262 29.6581 32.8572H47.2598C49.2204 32.8573 50.8098 34.4466 50.8098 36.4056Z" fill="#DD9F3A"/>
<path d="M71.5388 68.457C64.077 75.9177 53.0462 77.6327 43.9431 73.6C41.7992 72.6513 39.764 71.3836 37.9063 69.7972C37.4088 69.3734 36.9263 68.9259 36.4562 68.457C26.7692 58.7687 26.7692 43.0627 36.4562 33.3744C46.1445 23.6873 61.8506 23.6873 71.5388 33.3744C72.009 33.8445 72.4551 34.327 72.879 34.8245C74.4654 36.6809 75.7331 38.7172 76.6818 40.8612C80.7146 49.9631 78.9995 60.9952 71.5388 68.457Z" fill="#F4B74A"/>
<path d="M76.6816 40.8611L43.943 73.5998C41.7991 72.6511 39.7639 71.3834 37.9062 69.797L72.8789 34.8245C74.4652 36.6808 75.7328 38.7172 76.6816 40.8611Z" fill="#F9C662"/>
<path d="M71.5384 50.9158C71.5384 60.6034 63.6848 68.457 53.9972 68.457C48.5287 68.457 43.6454 65.9555 40.4278 62.0331C37.9448 59.0067 36.4561 55.1352 36.4561 50.9159C36.4561 41.2283 44.3097 33.3747 53.9973 33.3747C58.2176 33.3747 62.0895 34.8658 65.1154 37.3488C69.0367 40.565 71.5384 45.4484 71.5384 50.9158Z" fill="#FFD488"/>
<path d="M65.1154 37.3486L40.4301 62.0339L40.4279 62.0328C39.7032 61.1498 39.0632 60.1942 38.5212 59.1792C37.9032 58.0258 37.4117 56.7964 37.0631 55.5064C36.6673 54.0428 36.4561 52.5033 36.4561 50.9155C36.4561 41.2278 44.3097 33.3742 53.9973 33.3742C55.5862 33.3742 57.1258 33.5853 58.5883 33.9813C59.8783 34.3298 61.1075 34.8225 62.2611 35.4405C63.2759 35.9828 64.2314 36.6239 65.1154 37.3486Z" fill="#F9C662"/>
<path d="M62.2613 35.4408L38.5216 59.1792C37.9036 58.0258 37.4121 56.7964 37.0635 55.5064L58.5886 33.9814C59.8783 34.33 61.1079 34.8228 62.2613 35.4408Z" fill="#FFD488"/>
<path d="M41.2016 74.5266H4.74547C3.44719 74.5266 2.39125 73.4705 2.39125 72.1725V64.9833C2.39125 63.6852 3.44734 62.6291 4.74547 62.6291H7.13672H13.483H27.8648C28.5253 62.6291 29.0605 62.0938 29.0605 61.4334C29.0605 60.7731 28.5253 60.2378 27.8648 60.2378H13.4828H7.13672C5.83844 60.2378 4.7825 59.1817 4.7825 57.8836V50.6944C4.7825 49.3962 5.83859 48.3402 7.13672 48.3402H25.6862C26.3467 48.3402 26.8819 47.8048 26.8819 47.1445C26.8819 46.4842 26.3467 45.9489 25.6862 45.9489H4.74547C3.44719 45.9489 2.39125 44.8928 2.39125 43.5947V36.4055C2.39125 35.1073 3.44734 34.0513 4.74547 34.0513H11.122H20.6917H32.4611C33.1216 34.0513 33.6567 33.5159 33.6567 32.8556C33.6567 32.1953 33.1216 31.66 32.4611 31.66H20.6917H11.122C9.82375 31.66 8.76781 30.6039 8.76781 29.3058V22.1166C8.76781 20.8184 9.82391 19.7623 11.122 19.7623H47.2595H53.6362C54.9345 19.7623 55.9905 20.8184 55.9905 22.1166V23.0083C55.9905 23.6686 56.5256 24.2039 57.1861 24.2039C57.8466 24.2039 58.3817 23.6686 58.3817 23.0083V22.1166C58.3817 19.4998 56.253 17.3711 53.6362 17.3711H51.377C51.7756 16.6767 52.0048 15.8733 52.0048 15.0169V7.82735C52.0048 5.21063 49.8761 3.08188 47.2594 3.08188H4.74547C2.12875 3.08282 0 5.21157 0 7.82813V15.0173C0 17.6341 2.12875 19.7628 4.74547 19.7628H7.00437C6.60578 20.4572 6.37656 21.2606 6.37656 22.117V29.3063C6.37656 30.1628 6.60578 30.9661 7.00437 31.6605H4.74547C2.12875 31.6603 0 33.7891 0 36.4056V43.5948C0 45.6639 1.33172 47.427 3.1825 48.0745C2.68313 48.8258 2.39125 49.7264 2.39125 50.6944V57.8836C2.39125 58.8516 2.68313 59.7522 3.1825 60.5034C1.33172 61.1509 0 62.9141 0 64.9831V72.1723C0 74.7889 2.12875 76.9177 4.74547 76.9177H41.2016C41.862 76.9177 42.3972 76.3823 42.3972 75.722C42.3972 75.0617 41.8617 74.5266 41.2016 74.5266ZM2.39109 15.0173V7.82813C2.39109 6.53 3.44719 5.47391 4.74531 5.47391H47.2594C48.5577 5.47391 49.6136 6.53 49.6136 7.82813V15.0173C49.6136 16.3155 48.5575 17.3716 47.2594 17.3716H11.122H4.74547C3.44719 17.3716 2.39109 16.3155 2.39109 15.0173Z" fill="black"/>
<path d="M68.1767 29.1158C67.6237 28.7553 66.8828 28.9114 66.5223 29.4647C66.1617 30.0178 66.3179 30.7586 66.8711 31.1191C73.5948 35.5008 77.6089 42.9014 77.6089 50.9156C77.6089 63.9348 67.0168 74.5269 53.9976 74.5269C40.9782 74.5269 30.3862 63.9348 30.3862 50.9156C30.3862 37.8964 40.9782 27.3044 53.9976 27.3044C57.4159 27.3044 60.7128 28.0186 63.7962 29.4269C64.3973 29.7014 65.1062 29.4366 65.3804 28.8361C65.6548 28.2355 65.3903 27.5263 64.7896 27.2519C61.3921 25.7 57.7612 24.9133 53.9976 24.9133C39.66 24.9133 27.9951 36.578 27.9951 50.9156C27.9951 65.2533 39.66 76.918 53.9976 76.918C68.3353 76.918 80.0001 65.2534 80.0001 50.9158C80.0001 42.09 75.5803 33.9405 68.1767 29.1158Z" fill="black"/>
<path d="M39.5745 58.6167C39.2634 58.0344 38.5393 57.8144 37.9567 58.1259C37.3743 58.437 37.1545 59.1616 37.4659 59.7439C38.3326 61.3655 39.4371 62.8528 40.749 64.1647C44.4018 67.8175 49.1999 69.6439 53.9979 69.6439C58.7959 69.6439 63.594 67.8175 67.2468 64.1647C74.5523 56.8592 74.5523 44.9722 67.2468 37.6667C63.7077 34.1276 59.0026 32.1787 53.9979 32.1787C48.9932 32.1787 44.2879 34.1278 40.749 37.6667C36.0182 42.3973 34.1643 49.3525 35.9107 55.8181C36.0829 56.4556 36.7388 56.8328 37.3767 56.6606C38.014 56.4884 38.3912 55.8322 38.219 55.1947C36.6952 49.5531 38.3126 43.4847 42.4399 39.3575C45.5271 36.2703 49.632 34.5698 53.9981 34.5698C58.3641 34.5698 62.469 36.2701 65.5562 39.3575C71.9295 45.7308 71.9295 56.1006 65.5562 62.4739C59.1831 68.847 48.8132 68.847 42.4399 62.4739C41.2941 61.3284 40.3301 60.0306 39.5745 58.6167Z" fill="black"/>
<path d="M49.7833 55.4237C49.7833 54.7634 49.2482 54.2281 48.5877 54.2281C47.9272 54.2281 47.3921 54.7634 47.3921 55.4237C47.3921 58.2162 49.7288 60.5447 52.8021 61.032V61.7352C52.8021 62.3955 53.3372 62.9308 53.9977 62.9308C54.6582 62.9308 55.1933 62.3955 55.1933 61.7352V61.032C58.2666 60.5447 60.6032 58.2161 60.6032 55.4237C60.6032 52.6314 58.2666 50.3028 55.1933 49.8155V43.2314C56.9365 43.6375 58.2121 44.9072 58.2121 46.4075C58.2121 47.0678 58.7472 47.6031 59.4077 47.6031C60.0682 47.6031 60.6033 47.0678 60.6033 46.4075C60.6033 43.615 58.2668 41.2866 55.1935 40.7992V40.0961C55.1935 39.4358 54.6583 38.9005 53.9979 38.9005C53.3374 38.9005 52.8022 39.4358 52.8022 40.0961V40.7992C49.729 41.2867 47.3922 43.6152 47.3922 46.4075C47.3922 49.1998 49.729 51.5284 52.8022 52.0158V58.5998C51.0588 58.1936 49.7833 56.9239 49.7833 55.4237ZM58.2118 55.4237C58.2118 56.9239 56.9362 58.1936 55.193 58.5998V52.2478C56.9362 52.6539 58.2118 53.9237 58.2118 55.4237ZM49.7833 46.4075C49.7833 44.9073 51.059 43.6377 52.8022 43.2314V49.5834C51.0588 49.1773 49.7833 47.9077 49.7833 46.4075Z" fill="black"/>
</g>
<defs>
<clipPath id="clip0">
<rect width="80" height="80" fill="white"/>
</clipPath>
</defs>
</svg>
