<svg width="80" height="80" viewBox="0 0 80 80" fill="none" xmlns="http://www.w3.org/2000/svg">
<g clip-path="url(#clip0)">
<path d="M76.8543 44.8794C76.2721 44.9648 75.6771 45.0101 75.071 45.0101C69.4921 45.0101 64.7707 41.3606 63.1513 36.32C62.8744 35.4584 62.1707 34.795 61.2816 34.6256C52.0168 32.8617 45.0108 24.728 45.0108 14.9497C45.0108 10.8428 46.2505 7.02812 48.3711 3.85093C48.8754 3.09546 48.4546 2.08921 47.5636 1.91281C45.1174 1.42843 42.5893 1.17218 40.0007 1.17218C18.5566 1.17218 1.17285 18.5559 1.17285 40C1.17285 61.4439 18.5566 78.8278 40.0007 78.8278C59.3271 78.8278 75.3077 64.76 78.3135 46.2781C78.45 45.4394 77.6949 44.7559 76.8543 44.8794Z" fill="#F5B97D"/>
<path d="M22.4654 32.4844C25.232 32.4844 27.4748 30.2416 27.4748 27.475C27.4748 24.7084 25.232 22.4656 22.4654 22.4656C19.6988 22.4656 17.4561 24.7084 17.4561 27.475C17.4561 30.2416 19.6988 32.4844 22.4654 32.4844Z" fill="#CD916E"/>
<path d="M24.9697 56.2827C27.0451 56.2827 28.7275 54.6002 28.7275 52.5249C28.7275 50.4495 27.0451 48.767 24.9697 48.767C22.8943 48.767 21.2119 50.4495 21.2119 52.5249C21.2119 54.6002 22.8943 56.2827 24.9697 56.2827Z" fill="#CD916E"/>
<path d="M56.1296 11.3242L55.7702 13.4803C55.4749 15.2523 56.4752 16.9856 58.1572 17.6164L61.3386 18.8094C63.44 19.5973 65.7591 18.3797 66.3033 16.2023L67.4372 11.6664C68.1439 8.83937 65.5033 6.31859 62.7121 7.15593L58.756 8.34281C57.3839 8.75468 56.3652 9.91093 56.1296 11.3242Z" fill="#F5B97D"/>
<path d="M68.8081 24.97L67.2954 25.7264C66.109 26.3195 65.5907 27.7347 66.1132 28.9538L67.3303 31.7933C68.0671 33.5125 70.3598 33.847 71.5571 32.4102L73.5149 30.0608C74.4329 28.9592 74.2407 27.3134 73.0935 26.4531L71.4315 25.2066C70.6723 24.6372 69.6567 24.5456 68.8081 24.97Z" fill="#F5B97D"/>
<path d="M76.323 19.9594C77.7063 19.9594 78.8277 18.838 78.8277 17.4547C78.8277 16.0714 77.7063 14.95 76.323 14.95C74.9397 14.95 73.8184 16.0714 73.8184 17.4547C73.8184 18.838 74.9397 19.9594 76.323 19.9594Z" fill="#F5B97D"/>
<path d="M44.6975 74.1309C23.2535 74.1309 5.86973 56.7472 5.86973 35.3031C5.86973 25.7769 9.30582 17.057 14.9991 10.3014C6.54723 17.4239 1.17285 28.0822 1.17285 40C1.17285 61.4439 18.5566 78.8278 40.0007 78.8278C51.926 78.8278 62.5724 73.4669 69.6877 65.0223C62.9394 70.7058 54.2272 74.1309 44.6975 74.1309Z" fill="#E3AA75"/>
<path d="M61.8958 15.9025C59.7949 15.1147 58.5453 12.9499 58.9142 10.7364L59.3425 8.16704L58.7563 8.34298C57.3839 8.75469 56.3652 9.9111 56.1296 11.3244L55.7702 13.4805C55.4749 15.2525 56.4752 16.9858 58.1572 17.6166L61.3386 18.8095C63.0258 19.4422 64.8374 18.7686 65.7739 17.3569L61.8958 15.9025Z" fill="#E3AA75"/>
<path d="M70.0032 30.1792L68.6249 26.9631C68.366 26.3591 68.3445 25.7159 68.5013 25.1234L67.2959 25.7261C66.1096 26.3192 65.5912 27.7344 66.1137 28.9534L67.3307 31.793C68.0676 33.5122 70.3602 33.8469 71.5576 32.4099L72.0442 31.8259C71.1832 31.6505 70.396 31.0961 70.0032 30.1792Z" fill="#E3AA75"/>
<path d="M25.1271 29.8234C22.3601 29.8234 20.1171 27.5803 20.1171 24.8134C20.1171 24.1205 20.2581 23.4605 20.5124 22.8603C18.7159 23.6217 17.4556 25.4011 17.4556 27.475C17.4556 30.2419 19.6987 32.485 22.4656 32.485C24.5396 32.485 26.319 31.2245 27.0803 29.4281C26.4799 29.6825 25.8199 29.8234 25.1271 29.8234Z" fill="#B67F5F"/>
<path d="M26.9279 54.3258C24.8526 54.3258 23.1704 52.6434 23.1704 50.5683C23.1704 50.0383 23.2828 49.5355 23.4807 49.0781C22.1476 49.6553 21.2134 50.9802 21.2134 52.5253C21.2134 54.6006 22.8957 56.2828 24.9709 56.2828C26.5162 56.2828 27.8409 55.3486 28.4181 54.0155C27.9607 54.2134 27.4579 54.3258 26.9279 54.3258Z" fill="#B67F5F"/>
<path d="M48.7682 61.2919C51.5348 61.2919 53.7775 59.0491 53.7775 56.2825C53.7775 53.5159 51.5348 51.2731 48.7682 51.2731C46.0016 51.2731 43.7588 53.5159 43.7588 56.2825C43.7588 59.0491 46.0016 61.2919 48.7682 61.2919Z" fill="#CD916E"/>
<path d="M51.4299 58.6311C48.6628 58.6311 46.4199 56.388 46.4199 53.6211C46.4199 52.9281 46.5608 52.2681 46.8152 51.668C45.0186 52.4294 43.7583 54.2088 43.7583 56.2827C43.7583 59.0495 46.0014 61.2927 48.7683 61.2927C50.8424 61.2927 52.6217 60.0322 53.383 58.2358C52.7828 58.4902 52.1228 58.6311 51.4299 58.6311Z" fill="#B67F5F"/>
<path d="M38.6951 36.2422C40.0784 36.2422 41.1998 35.1208 41.1998 33.7375C41.1998 32.3542 40.0784 31.2328 38.6951 31.2328C37.3118 31.2328 36.1904 32.3542 36.1904 33.7375C36.1904 35.1208 37.3118 36.2422 38.6951 36.2422Z" fill="#CD916E"/>
<path d="M22.4656 21.293C19.0568 21.293 16.2837 24.0663 16.2837 27.4748C16.2837 30.8834 19.057 33.6567 22.4656 33.6567C25.8743 33.6567 28.6476 30.8834 28.6476 27.4748C28.6476 24.0663 25.8742 21.293 22.4656 21.293ZM22.4656 31.3131C20.3492 31.3131 18.6274 29.5913 18.6274 27.475C18.6274 25.3588 20.3493 23.6369 22.4656 23.6369C24.5818 23.6369 26.3038 25.3588 26.3038 27.475C26.3038 29.5913 24.5818 31.3131 22.4656 31.3131Z" fill="black"/>
<path d="M42.5859 56.2828C42.5859 59.6916 45.3592 62.4647 48.7678 62.4647C52.1764 62.4647 54.9497 59.6914 54.9497 56.2828C54.9497 52.8742 52.1764 50.101 48.7678 50.101C45.3592 50.101 42.5859 52.8741 42.5859 56.2828ZM48.768 52.4445C50.8844 52.4445 52.6061 54.1664 52.6061 56.2827C52.6061 58.3989 50.8842 60.1208 48.768 60.1208C46.6517 60.1208 44.9298 58.3989 44.9298 56.2827C44.9298 54.1664 46.6516 52.4445 48.768 52.4445Z" fill="black"/>
<path d="M24.9704 47.5958C22.2523 47.5958 20.041 49.8072 20.041 52.5253C20.041 55.2434 22.2523 57.4547 24.9704 57.4547C27.6885 57.4547 29.8999 55.2434 29.8999 52.5253C29.8999 49.8072 27.6885 47.5958 24.9704 47.5958ZM24.9704 55.1109C23.5446 55.1109 22.3848 53.9511 22.3848 52.5253C22.3848 51.0995 23.5446 49.9395 24.9704 49.9395C26.3962 49.9395 27.5562 51.0995 27.5562 52.5253C27.5562 53.9511 26.3962 55.1109 24.9704 55.1109Z" fill="black"/>
<path d="M35.0713 33.7375C35.0713 35.765 36.7208 37.4144 38.7482 37.4144C40.7755 37.4144 42.425 35.7649 42.425 33.7375C42.425 31.7102 40.7755 30.0606 38.7482 30.0606C36.7208 30.0606 35.0713 31.7102 35.0713 33.7375ZM38.7482 32.4044C39.4833 32.4044 40.0813 33.0025 40.0813 33.7375C40.0813 34.4725 39.4832 35.0706 38.7482 35.0706C38.0132 35.0706 37.415 34.4725 37.415 33.7375C37.415 33.0025 38.013 32.4044 38.7482 32.4044Z" fill="black"/>
<path d="M62.5467 52.4448C62.7228 52.4448 62.9015 52.405 63.0698 52.3209C63.6487 52.0314 63.8834 51.3276 63.5939 50.7486L62.3414 48.2434C62.052 47.6645 61.3481 47.4297 60.7692 47.7194C60.1903 48.0087 59.9556 48.7126 60.2451 49.2916L61.4976 51.7967C61.7031 52.2075 62.1168 52.4448 62.5467 52.4448Z" fill="black"/>
<path d="M48.7688 44.9297C48.9449 44.9297 49.1236 44.8899 49.2919 44.8058L51.7969 43.5533C52.3758 43.2639 52.6105 42.56 52.321 41.9811C52.0314 41.4022 51.3278 41.1674 50.7488 41.457L48.2438 42.7095C47.6649 42.9989 47.4302 43.7028 47.7197 44.2817C47.925 44.6924 48.3388 44.9297 48.7688 44.9297Z" fill="black"/>
<path d="M13.9019 41.7766C14.1072 42.1872 14.521 42.4245 14.951 42.4245C15.1271 42.4245 15.3058 42.3847 15.4741 42.3006C16.053 42.0113 16.2877 41.3073 15.9982 40.7284L14.7457 38.2234C14.4563 37.6445 13.7524 37.4097 13.1735 37.6994C12.5946 37.9888 12.3599 38.6927 12.6494 39.2716L13.9019 41.7766Z" fill="black"/>
<path d="M33.2141 61.497L30.7091 62.7495C30.1302 63.0389 29.8955 63.7428 30.1851 64.3217C30.3904 64.7324 30.8041 64.9697 31.2341 64.9697C31.4102 64.9697 31.589 64.9299 31.7572 64.8458L34.2622 63.5933C34.8411 63.3039 35.0758 62.6 34.7863 62.0211C34.4969 61.4422 33.793 61.2075 33.2141 61.497Z" fill="black"/>
<path d="M34.5664 14.1213L33.3139 12.8686C32.8564 12.4109 32.1144 12.4109 31.6567 12.8686C31.1991 13.3263 31.1991 14.0681 31.6567 14.5258L32.9094 15.7784C33.1381 16.0074 33.4381 16.1217 33.738 16.1217C34.0378 16.1217 34.3378 16.0074 34.5666 15.7784C35.0241 15.3209 35.0241 14.5791 34.5664 14.1213Z" fill="black"/>
<path d="M29.1518 41.6764C28.6942 42.1341 28.6942 42.8761 29.1518 43.3336L30.4043 44.5861C30.6331 44.8148 30.9331 44.9294 31.2329 44.9294C31.5328 44.9294 31.8328 44.815 32.0615 44.5861C32.5192 44.1284 32.5192 43.3864 32.0615 42.9289L30.809 41.6764C30.3515 41.2187 29.6095 41.2187 29.1518 41.6764Z" fill="black"/>
<path d="M43.8389 68.8078V70.0603C43.8389 70.7075 44.3636 71.2322 45.0107 71.2322C45.6579 71.2322 46.1826 70.7075 46.1826 70.0603V68.8078C46.1826 68.1606 45.6579 67.6359 45.0107 67.6359C44.3636 67.6359 43.8389 68.1606 43.8389 68.8078Z" fill="black"/>
<path d="M38.3242 23.2936L39.5767 22.0411C40.0343 21.5834 40.0343 20.8414 39.5767 20.3839C39.119 19.9262 38.377 19.9262 37.9195 20.3839L36.667 21.6364C36.2093 22.0941 36.2093 22.8361 36.667 23.2936C36.8957 23.5223 37.1957 23.6369 37.4956 23.6369C37.7954 23.6369 38.0954 23.5223 38.3242 23.2936Z" fill="black"/>
<path d="M57.7455 18.7134L60.9269 19.9066C61.4857 20.1161 62.0719 20.22 62.6569 20.22C63.4474 20.22 64.2355 20.0303 64.9494 19.6553C66.1918 19.003 67.0996 17.848 67.4399 16.4866L68.5738 11.9506C69.0093 10.2089 68.494 8.42906 67.1954 7.18937C65.8966 5.94952 64.0947 5.51749 62.3751 6.03343L58.4191 7.22031C56.6324 7.75624 55.2797 9.2914 54.9732 11.1314L54.6138 13.2875C54.2276 15.6062 55.5446 17.8881 57.7455 18.7134ZM56.9258 13.673L57.2852 11.5169C57.446 10.5517 58.1555 9.7464 59.0927 9.46531L63.0487 8.27843C63.2993 8.20327 63.5532 8.16656 63.8038 8.16656C64.4554 8.16656 65.0851 8.41515 65.5771 8.88484C66.2582 9.53499 66.5285 10.4686 66.3002 11.3822L65.1663 15.9181C64.9851 16.6428 64.5212 17.2331 63.8599 17.5803C63.1987 17.9275 62.4494 17.9744 61.7499 17.7122L58.5685 16.5191C57.414 16.0861 56.7232 14.8892 56.9258 13.673Z" fill="black"/>
<path d="M66.7717 24.6781C65.0328 25.5475 64.2706 27.6283 65.0364 29.4153L66.2535 32.2548C66.7614 33.4398 67.8263 34.2586 69.102 34.4448C69.2833 34.4712 69.4641 34.4842 69.6433 34.4842C70.7255 34.4842 71.7494 34.01 72.4577 33.1603L74.4155 30.8109C75.067 30.0289 75.3609 29.0414 75.2428 28.0305C75.1247 27.0195 74.6113 26.1262 73.7969 25.5156L72.1349 24.2691C71.0136 23.428 69.5381 23.2948 68.2842 23.9219L66.7717 24.6781ZM69.3327 26.0181C69.5228 25.923 69.727 25.8761 69.9302 25.8761C70.2124 25.8761 70.4922 25.9667 70.7286 26.1439L72.3906 27.3905C72.6859 27.6119 72.8722 27.9358 72.9149 28.3023C72.9575 28.6689 72.8511 29.027 72.6149 29.3105L70.657 31.6598C70.3533 32.0244 69.9097 32.194 69.4403 32.1255C68.9708 32.057 68.5944 31.7675 68.4075 31.3314L67.1905 28.4919C66.9128 27.8439 67.1892 27.0894 67.8197 26.7742L69.3327 26.0181C69.3325 26.0181 69.3325 26.0181 69.3327 26.0181Z" fill="black"/>
<path d="M76.3234 21.1317C78.3509 21.1317 80.0003 19.4822 80.0003 17.4548C80.0003 15.4275 78.3507 13.7781 76.3234 13.7781C74.296 13.7781 72.6465 15.4277 72.6465 17.455C72.6465 19.4823 74.2959 21.1317 76.3234 21.1317ZM76.3234 16.1219C77.0585 16.1219 77.6565 16.72 77.6565 17.455C77.6565 18.19 77.0584 18.7881 76.3234 18.7881C75.5884 18.7881 74.9902 18.19 74.9902 17.455C74.9902 16.7198 75.5882 16.1219 76.3234 16.1219Z" fill="black"/>
<path d="M76.6838 43.7198C76.1488 43.7983 75.6062 43.8381 75.0709 43.8381C70.1221 43.8381 65.7805 40.6728 64.2668 35.9612C63.8529 34.6733 62.7929 33.7203 61.5005 33.4742C52.6246 31.7844 46.1824 23.9936 46.1824 14.9495C46.1824 11.2148 47.2762 7.60171 49.3457 4.50109C49.7996 3.82093 49.8848 2.96718 49.5735 2.21718C49.2616 1.46577 48.5952 0.92218 47.791 0.762961C43.8041 -0.0265697 39.7134 -0.204226 35.633 0.235305C27.4674 1.11452 19.8566 4.48249 13.6232 9.97562C13.1376 10.4034 13.0909 11.1441 13.5188 11.6295C13.9466 12.115 14.6873 12.1619 15.1727 11.7339C21.0409 6.5628 28.2026 3.39249 35.8838 2.56577C39.7288 2.15171 43.5818 2.3189 47.3357 3.06234C47.363 3.0678 47.3932 3.07843 47.4088 3.11593C47.4235 3.1514 47.4115 3.17749 47.3962 3.2003C45.0688 6.68749 43.8387 10.7505 43.8387 14.9497C43.8387 25.1176 51.0823 33.8767 61.0621 35.7767C61.5112 35.8622 61.8841 36.2076 62.0354 36.6783C63.8616 42.3626 69.1002 46.1819 75.0709 46.1819C75.7198 46.1819 76.377 46.1336 77.0243 46.0386C77.1107 46.0258 77.1548 46.0769 77.1566 46.0898C76.027 53.0367 72.9577 59.5219 68.2809 64.8445C67.8537 65.3308 67.9015 66.0712 68.3877 66.4984C68.6102 66.6939 68.8862 66.79 69.1609 66.79C69.4863 66.79 69.8099 66.6553 70.0416 66.3917C75.0093 60.7379 78.2696 53.8479 79.4701 46.4662C79.5921 45.7156 79.3552 44.9734 78.8198 44.4297C78.2684 43.8697 77.4699 43.6044 76.6838 43.7198Z" fill="black"/>
<path d="M64.8454 68.282C57.9742 74.327 49.1507 77.6559 40.0003 77.6559C34.7257 77.6559 29.6245 76.5872 24.8381 74.4791C20.2137 72.4425 16.102 69.5387 12.6174 65.8486C9.13839 62.1644 6.47964 57.902 4.71495 53.1798C2.87995 48.2692 2.10385 43.088 2.40807 37.78C2.88229 29.5059 6.19557 21.4775 11.7374 15.1733C12.1648 14.6872 12.1171 13.9467 11.631 13.5195C11.1451 13.0922 10.4045 13.1397 9.97729 13.6259C4.09136 20.3212 0.572292 28.8516 0.0682297 37.6459C-0.254739 43.2808 0.569948 48.7831 2.51964 54.0003C4.39448 59.0172 7.21854 63.545 10.9135 67.4577C14.6143 71.3767 18.9815 74.4606 23.8935 76.6241C28.9795 78.8639 34.3985 79.9995 40.0003 79.9995C49.7209 79.9995 59.0942 76.463 66.3935 70.0416C66.8795 69.6141 66.9268 68.8736 66.4993 68.3877C66.072 67.9019 65.3314 67.8545 64.8454 68.282Z" fill="black"/>
</g>
<defs>
<clipPath id="clip0">
<rect width="80" height="80" fill="white"/>
</clipPath>
</defs>
</svg>
