<svg width="80" height="80" viewBox="0 0 80 80" fill="none" xmlns="http://www.w3.org/2000/svg">
<g clip-path="url(#clip0)">
<path d="M73.9938 60.0776L57.9221 44.0059C57.429 43.5128 57.429 42.7133 57.9221 42.2202L60.6007 39.5416C61.0938 39.0484 61.8933 39.0484 62.3865 39.5416L78.4582 55.6133C78.9513 56.1064 78.9513 56.9059 78.4582 57.3991L75.7796 60.0776C75.2865 60.5708 74.4869 60.5708 73.9938 60.0776Z" fill="#D0E2E7"/>
<path d="M78.4579 55.6133L74.44 51.5953C74.9331 52.0884 74.9331 52.888 74.44 53.3811L71.7614 56.0597C71.2682 56.5528 70.4687 56.5528 69.9756 56.0597L73.9936 60.0777C74.4867 60.5708 75.2862 60.5708 75.7793 60.0777L78.4579 57.3991C78.9511 56.9059 78.9511 56.1064 78.4579 55.6133Z" fill="#B4D0D5"/>
<path d="M45.5564 78.1186L39.1714 78.8281L39.8808 72.4431C39.9995 71.3745 40.4784 70.3781 41.2387 69.6178L62.3861 48.4703L69.5291 55.6133L48.3817 76.7606C47.6214 77.5209 46.625 77.9999 45.5564 78.1186Z" fill="#9BB9C1"/>
<path d="M67.1853 53.2695L46.038 74.4169C45.2776 75.1772 44.2812 75.6561 43.2126 75.7748L39.4644 76.1912L39.1714 78.8281L45.5564 78.1187C46.625 78 47.6214 77.5211 48.3817 76.7608L69.5291 55.6134L67.1853 53.2695Z" fill="#86A0AF"/>
<path d="M68.7826 18.1727L49.0989 6.80828C48.495 6.45953 48.2879 5.68734 48.6367 5.08343L50.5307 1.80281C50.8795 1.1989 51.6517 0.991869 52.2556 1.34062L71.9395 12.705C72.5434 13.0537 72.7504 13.8259 72.4017 14.4298L70.5076 17.7105C70.1589 18.3144 69.3867 18.5214 68.7826 18.1727Z" fill="#D0E2E7"/>
<path d="M71.939 12.705L67.018 9.86391C67.622 10.2127 67.829 10.9848 67.4802 11.5887L65.5862 14.8694C65.2374 15.4733 64.4652 15.6803 63.8613 15.3316L68.7823 18.1727C69.3862 18.5214 70.1585 18.3144 70.5071 17.7105L72.4012 14.4298C72.7498 13.8259 72.5429 13.0536 71.939 12.705Z" fill="#B4D0D5"/>
<path d="M45.9836 42.9589L39.9998 45.2967L39.0325 38.9456C38.8706 37.8827 39.0753 36.7963 39.613 35.865L54.5664 9.96484L63.3147 15.0156L48.3612 40.9158C47.8236 41.8472 46.9852 42.5677 45.9836 42.9589Z" fill="#9BB9C1"/>
<path d="M60.4443 13.3586L45.4909 39.2586C44.9532 40.1898 44.1148 40.9103 43.1132 41.3016L39.6006 42.6739L40.0001 45.2967L45.9839 42.9589C46.9854 42.5677 47.8239 41.8472 48.3615 40.9159L63.315 15.0158L60.4443 13.3586Z" fill="#86A0AF"/>
<path d="M24.6434 23.5741L4.95969 34.9385C4.35579 35.2872 3.58344 35.0802 3.23485 34.4763L1.34079 31.1957C0.992037 30.5918 1.19907 29.8194 1.80297 29.4708L21.4867 18.1064C22.0906 17.7577 22.863 17.9647 23.2116 18.5686L25.1056 21.8493C25.4544 22.4532 25.2473 23.2253 24.6434 23.5741Z" fill="#D0E2E7"/>
<path d="M21.4869 18.1062L16.5659 20.9473C17.1698 20.5986 17.9422 20.8056 18.2908 21.4095L20.1848 24.6902C20.5336 25.2941 20.3265 26.0664 19.7226 26.415L24.6436 23.5739C25.2475 23.2252 25.4545 22.453 25.1058 21.8491L23.2117 18.5684C22.8631 17.9644 22.0908 17.7575 21.4869 18.1062Z" fill="#B4D0D5"/>
<path d="M34.7093 55.7114L33.7419 62.0625L27.758 59.7247C26.7565 59.3334 25.918 58.613 25.3804 57.6817L10.4272 31.7816L19.1755 26.7308L34.129 52.6309C34.6665 53.5619 34.8713 54.6484 34.7093 55.7114Z" fill="#9BB9C1"/>
<path d="M16.3052 28.388L31.2586 54.2881C31.7963 55.2192 32.001 56.3058 31.8391 57.3687L31.2713 61.097L33.7424 62.0625L34.7097 55.7114C34.8716 54.6484 34.6669 53.562 34.1292 52.6308L19.1758 26.7306L16.3052 28.388Z" fill="#86A0AF"/>
<path d="M79.2872 54.7845L63.2155 38.7131C62.7558 38.2533 62.1442 38 61.4939 38C60.8436 38 60.2322 38.2533 59.7722 38.7131L57.0936 41.3917C56.1444 42.3409 56.1444 43.8856 57.0936 44.8348L60.7294 48.4706L52.2695 56.9305C51.8119 57.3883 51.8119 58.1302 52.2695 58.588C52.4984 58.8167 52.7984 58.9311 53.0983 58.9311C53.3981 58.9311 53.6981 58.8167 53.927 58.588L62.3869 50.1281L67.8725 55.6137L47.5552 75.9312C46.9836 76.5017 46.2283 76.865 45.4286 76.9539L40.4984 77.5016L41.0461 72.573C41.135 71.7723 41.4983 71.0166 42.0677 70.4458L50.06 62.4552C50.5178 61.9975 50.5178 61.2556 50.0602 60.7978C49.6025 60.3401 48.8605 60.34 48.4028 60.7977L40.4094 68.7892C39.4652 69.7358 38.8639 70.9875 38.7166 72.3142L38.0072 78.6987C37.9678 79.0526 38.0916 79.4051 38.3431 79.6569C38.5642 79.8778 38.8627 80 39.1719 80C39.2147 80 39.2581 79.9977 39.3013 79.9928L45.6873 79.2834C47.0131 79.1359 48.2644 78.5347 49.2116 77.5895L69.53 57.2711L73.1655 60.9066C73.6402 61.3811 74.2634 61.6184 74.887 61.6184C75.5103 61.6184 76.1341 61.3809 76.6088 60.9064L79.2872 58.2278C79.747 57.7681 80.0003 57.1566 80.0003 56.5062C80.0003 55.8559 79.747 55.2445 79.2872 54.7845ZM77.6299 56.5705L74.9514 59.2491C74.9159 59.2844 74.858 59.2847 74.823 59.2491L58.7513 43.1773C58.7156 43.1419 58.7156 43.0844 58.7513 43.0491L61.4298 40.3705C61.4364 40.3638 61.4564 40.3438 61.4941 40.3438C61.5316 40.3438 61.5516 40.3638 61.5581 40.3705L77.6299 56.442C77.6366 56.4486 77.6566 56.4686 77.6566 56.5062C77.6566 56.5437 77.6366 56.5637 77.6299 56.5705Z" fill="black"/>
<path d="M39.4135 46.3114C39.5938 46.4156 39.7961 46.4684 39.9994 46.4684C40.1436 46.4684 40.2883 46.4419 40.4258 46.3881L46.4097 44.0508C47.6532 43.5658 48.7063 42.6602 49.3753 41.5011L57.4349 27.5414C57.7585 26.9809 57.5664 26.2642 57.006 25.9406C56.4452 25.6172 55.7286 25.8089 55.4052 26.3695L47.3455 40.3294C46.9419 41.0291 46.3071 41.5752 45.5577 41.8673L40.9375 43.672L40.1908 38.7677C40.0691 37.972 40.2241 37.1492 40.6269 36.4511L54.9953 11.5659L61.7136 15.4447L58.1396 21.6336C57.816 22.1941 58.0078 22.9108 58.5683 23.2345C58.753 23.3411 58.9546 23.3917 59.1533 23.3917C59.5583 23.3917 59.9521 23.1816 60.1692 22.8058L63.7435 16.6167L68.1961 19.1875C68.5786 19.4083 68.9966 19.5131 69.4094 19.5131C70.2514 19.5131 71.0716 19.0764 71.5219 18.2964L73.416 15.0159C74.0872 13.8533 73.6874 12.3614 72.5249 11.6902L52.841 0.325626C51.6785 -0.345468 50.1866 0.0543759 49.5152 1.21672L47.6214 4.49719C47.2961 5.06047 47.2096 5.71656 47.378 6.34484C47.5463 6.97297 47.9491 7.49781 48.5124 7.82297L52.9655 10.3939L38.5969 35.2792C37.9288 36.4372 37.6719 37.8019 37.8738 39.1211L38.841 45.4728C38.8944 45.825 39.105 46.1334 39.4135 46.3114ZM49.6418 5.73813C49.6321 5.70203 49.6461 5.6775 49.651 5.66938L51.5447 2.38891C51.5699 2.34578 51.6255 2.33016 51.6691 2.35547L71.3528 13.7198C71.3963 13.7448 71.4111 13.8006 71.3861 13.8441L69.4921 17.1245C69.4671 17.168 69.4108 17.1828 69.368 17.1578L49.6842 5.79344C49.6761 5.78859 49.6516 5.77453 49.6418 5.73813Z" fill="black"/>
<path d="M20.7765 27.1595L25.2293 24.5886C26.3918 23.9175 26.7916 22.4255 26.1204 21.263L24.2262 17.9823C23.5546 16.8197 22.0623 16.4202 20.9005 17.0914L1.21679 28.4558C0.0542926 29.1269 -0.345551 30.6189 0.325699 31.7814L2.21976 35.062C2.67023 35.8422 3.49023 36.2788 4.33226 36.2788C4.74507 36.2788 5.16304 36.1739 5.54554 35.9531L9.99789 33.3825L14.3221 40.873C14.5391 41.2489 14.933 41.4591 15.338 41.4591C15.5368 41.4591 15.7384 41.4084 15.9229 41.3019C16.4834 40.9784 16.6754 40.2617 16.3518 39.7011L12.0276 32.2106L18.7466 28.3314L33.1143 53.2169C33.5173 53.915 33.6721 54.7377 33.5504 55.5342L32.8038 60.4377L28.1862 58.6336C27.4341 58.3391 26.7984 57.7928 26.3957 57.0949L19.0862 44.437C18.7624 43.8766 18.0459 43.6849 17.4852 44.0083C16.9248 44.3319 16.7329 45.0486 17.0565 45.6092L24.3659 58.2667C25.0334 59.423 26.0865 60.3283 27.3324 60.8163L33.3152 63.1538C33.4529 63.2077 33.5976 63.2342 33.7418 63.2342C33.9451 63.2342 34.1474 63.1813 34.3277 63.0772C34.6362 62.8991 34.8466 62.5908 34.9002 62.2388L35.8674 55.8878C36.0693 54.5675 35.8124 53.2028 35.1441 52.045L20.7765 27.1595ZM4.37351 33.9234C4.33054 33.9484 4.27445 33.9336 4.24945 33.8902L2.35539 30.6095C2.33039 30.5663 2.34539 30.5105 2.38867 30.4855L22.0726 19.1209C22.0787 19.1177 22.0941 19.1086 22.1168 19.1086C22.1241 19.1086 22.1324 19.1097 22.1412 19.1119C22.1776 19.1216 22.1919 19.1464 22.1965 19.1542L24.0905 22.4347C24.1155 22.478 24.1005 22.5338 24.0573 22.5588L4.37351 33.9234Z" fill="black"/>
</g>
<defs>
<clipPath id="clip0">
<rect width="80" height="80" fill="white"/>
</clipPath>
</defs>
</svg>
