<svg width="80" height="80" viewBox="0 0 80 80" fill="none" xmlns="http://www.w3.org/2000/svg">
<g clip-path="url(#clip0)">
<path d="M74.4628 14.4506L78.622 7.15246C78.9657 6.54914 78.8637 5.7905 78.3727 5.29954L74.6953 1.62197C74.2044 1.131 73.4456 1.02896 72.8424 1.37273L65.5443 5.53189C64.4478 6.15677 63.843 7.38685 64.0177 8.63677L64.2241 10.1139C64.358 11.0716 64.0347 12.0365 63.3509 12.7203L33.9858 42.0854L37.9094 46.0089L67.2744 16.6438C67.9582 15.96 68.9233 15.6367 69.8808 15.7706L71.3579 15.9771C72.6079 16.1519 73.8379 15.547 74.4628 14.4506Z" fill="#E9EDF1"/>
<path d="M78.6229 7.15214L74.4633 14.451C73.8382 15.5464 72.6085 16.1511 71.3584 15.9777L69.8818 15.7714C68.9239 15.637 67.9582 15.9605 67.2754 16.6433L37.9095 46.0092L33.9858 42.0855L34.064 42.0074L35.8781 43.8216L65.244 14.4557C65.9268 13.7729 66.8925 13.4494 67.8504 13.5838L69.327 13.79C70.5771 13.9635 71.8069 13.3588 72.4319 12.2634L76.5915 4.96451C76.8353 4.5348 76.8541 4.02852 76.6681 3.59412L78.3729 5.29891C78.8636 5.79112 78.9667 6.54898 78.6229 7.15214Z" fill="#DCE6EB"/>
<path d="M31.2183 40.0526L39.9358 48.7701L32.5956 56.1103L23.8781 47.3928L31.2183 40.0526Z" fill="#5FA7EE"/>
<path d="M30.2412 53.7747L37.5812 46.4347L39.9247 48.7783L32.5847 56.1183L30.2412 53.7747Z" fill="#518FCC"/>
<path d="M29.2351 40.9517L39.0438 50.7604C40.4283 52.1449 42.6728 52.1449 44.0571 50.7604C45.4416 49.3759 45.4416 47.1314 44.0571 45.7471L34.2484 35.9384C32.8639 34.554 30.6194 34.554 29.2351 35.9384C27.8507 37.3227 27.8507 39.5672 29.2351 40.9517Z" fill="#6CBFF8"/>
<path d="M45.0945 48.2547C45.0945 49.161 44.7491 50.0688 44.0569 50.7611C42.6724 52.144 40.4286 52.144 39.0441 50.7611L37.9487 49.6657C39.1316 49.9844 40.4504 49.6797 41.3802 48.75L42.0459 48.0828C42.9756 47.153 43.2803 45.8358 42.9615 44.6513L44.0569 45.7467C44.749 46.4389 45.0945 47.3468 45.0945 48.2547Z" fill="#5FA7EE"/>
<path d="M34.902 55.5557L24.4395 45.0932C23.2357 43.8894 21.2839 43.8894 20.08 45.0932L16.8105 48.3628L10.6045 56.9181L4.05922 61.114L2.96931 62.2039C0.561663 64.6116 0.561663 68.5151 2.96931 70.9227L9.07249 77.0259C11.4801 79.4336 15.3837 79.4336 17.7913 77.0259L18.8812 75.936L24.9774 67.1831L31.6325 63.1848L34.902 59.9152C36.1058 58.7112 36.1058 56.7595 34.902 55.5557Z" fill="#6CBFF8"/>
<path d="M34.9016 59.9147L17.7912 77.0252C15.3832 79.4331 11.4799 79.4331 9.07192 77.0252L6.72803 74.6813C9.13599 77.0892 13.0393 77.0892 15.4473 74.6813L32.5577 57.5708C33.7625 56.3676 33.7625 54.416 32.5577 53.2112L34.9016 55.5551C36.1065 56.7599 36.1065 58.7115 34.9016 59.9147Z" fill="#5FA7EE"/>
<path d="M4.05908 61.1139L16.8103 48.3626L18.99 50.5423C20.1938 51.7461 20.1938 53.698 18.99 54.9018L10.5981 63.2937C9.39425 64.4975 7.44241 64.4975 6.23859 63.2937L4.05908 61.1139Z" fill="#5FA7EE"/>
<path d="M18.881 75.936L24.5386 67.5099L31.6323 63.1846L29.4526 61.0049C28.2488 59.8011 26.2969 59.8011 25.0931 61.0049L16.7012 69.3969C15.4974 70.6007 15.4974 72.5525 16.7012 73.7563L18.881 75.936Z" fill="#5FA7EE"/>
<path d="M31.6324 63.1852L18.8816 75.936L16.7018 73.7562C16.6471 73.7015 16.5939 73.6437 16.5439 73.5859L29.2822 60.8476C29.34 60.8976 29.3978 60.9507 29.4525 61.0054L31.6324 63.1852Z" fill="#518FCC"/>
<path d="M79.2021 4.47074L75.5245 0.793484C74.6626 -0.0685993 73.3214 -0.249079 72.2625 0.354551L64.9644 4.51371C63.4419 5.38142 62.6149 7.0634 62.8575 8.79897L63.0639 10.2762C63.1465 10.8663 62.9441 11.4702 62.5227 11.8917L58.3098 16.1047C57.8521 16.5624 57.8521 17.3043 58.3099 17.762C58.7674 18.2195 59.5095 18.2197 59.9672 17.7619L64.18 13.5489C65.1184 12.6106 65.5691 11.2658 65.3852 9.9517L65.1788 8.47458C65.0699 7.69515 65.4413 6.9398 66.1251 6.55024L73.423 2.39108C73.5672 2.30905 73.7499 2.33342 73.8671 2.45093L77.5447 6.12834C77.662 6.24569 77.6866 6.4282 77.6045 6.57227L73.4454 13.8704C73.0555 14.5542 72.2994 14.9267 71.5209 14.8167L70.0439 14.6103C68.7296 14.4257 67.3845 14.8768 66.4465 15.8153L41.1143 41.1469L38.8484 38.881L56.0845 21.6449C56.5421 21.1871 56.5421 20.4451 56.0845 19.9875C55.6266 19.5299 54.8847 19.5299 54.427 19.9875L37.191 37.2235L35.0771 35.1096C33.2378 33.2705 30.2452 33.2706 28.4064 35.1098C26.6632 36.8533 26.5736 39.6324 28.1356 41.4838L25.3117 44.3077L25.2684 44.2644C23.6097 42.6062 20.9106 42.6059 19.2516 44.2644L2.14073 61.3751C-0.974773 64.4577 -0.597406 69.5347 2.71186 72.3225C3.1697 72.7801 3.91146 72.7801 4.3693 72.3225C4.82698 71.8647 4.82698 71.1228 4.3693 70.6651C1.87587 68.6829 1.60757 64.9025 4.05928 62.7715L5.4103 64.1225C6.21394 64.9261 7.28229 65.3687 8.41877 65.3687C9.55524 65.3687 10.6236 64.926 11.4272 64.1225L19.8191 55.7307C21.4697 54.1472 21.4696 51.2973 19.8191 49.714L18.4681 48.3628L20.9089 45.922C21.6543 45.1771 22.8662 45.1768 23.6109 45.922L34.0736 56.3845C34.8185 57.1296 34.8185 58.3417 34.0736 59.0866L31.6327 61.5275L30.2817 60.1766C28.6981 58.5261 25.8484 58.5259 24.2647 60.1765L15.8731 68.5684C14.2226 70.1519 14.2224 73.0016 15.873 74.5853L17.224 75.9363C15.3187 78.0998 11.9437 78.2554 9.90151 76.1973L8.23657 74.5323C7.77873 74.0748 7.03681 74.0748 6.57912 74.5323C6.12144 74.9902 6.12144 75.7321 6.57912 76.1898L8.24407 77.8547C11.1049 80.7154 15.7594 80.7151 18.6203 77.8547L24.19 72.285C24.6477 71.8272 24.6477 71.0853 24.19 70.6276C23.7322 70.1701 22.9903 70.1701 22.5326 70.6276L18.8816 74.2786L17.5306 72.9276C16.7893 72.2166 16.7893 70.9365 17.5306 70.2257L25.9223 61.8338C26.6336 61.0923 27.9132 61.0925 28.6244 61.8338L29.9754 63.1846L26.4153 66.7447C25.9576 67.2025 25.9576 67.9444 26.4153 68.4021C26.8732 68.8597 27.6151 68.8597 28.0728 68.4021L35.731 60.7437C37.4065 59.0709 37.3855 56.3331 35.6879 54.6838L38.5117 51.86C39.3866 52.5982 40.468 52.9684 41.5505 52.9684C42.7582 52.9684 43.9664 52.5087 44.886 51.5892C46.7251 49.7501 46.7251 46.7575 44.886 44.9185L42.7721 42.8046L68.1038 17.4725C68.5251 17.0512 69.1299 16.849 69.7192 16.9313L71.1963 17.1378C72.9313 17.38 74.6137 16.5533 75.4817 15.0309L79.6409 7.73266C80.2442 6.67369 80.0637 5.33235 79.2021 4.47074ZM18.1619 51.3713C18.903 52.0822 18.903 53.362 18.1617 54.0731L9.76978 62.465C9.40898 62.8259 8.92926 63.0246 8.41877 63.0246C7.90842 63.0246 7.42855 62.8259 7.06775 62.4649L5.71673 61.1139L16.8105 50.0199L18.1619 51.3713ZM43.9234 48.2539C43.9234 48.8877 43.6765 49.4835 43.2285 49.9316C42.3028 50.857 40.7974 50.8568 39.8724 49.9318C39.5094 49.5688 37.9204 47.9796 37.5268 47.586C37.0691 47.1283 36.327 47.1282 35.8695 47.5859C35.4116 48.0435 35.4116 48.7856 35.8693 49.2431L36.8413 50.2152L34.0303 53.0262L26.969 45.965L29.7801 43.1539L32.0022 45.3759C32.4598 45.8334 33.2018 45.8336 33.6595 45.3757C34.1172 44.918 34.1172 44.176 33.6594 43.7184L30.0637 40.1227C29.1383 39.1975 29.1385 37.692 30.0637 36.7668C30.947 35.8461 32.5362 35.8462 33.4195 36.7668L43.2282 46.5755C43.6765 47.024 43.9234 47.6199 43.9234 48.2539Z" fill="black"/>
</g>
<defs>
<clipPath id="clip0">
<rect width="80" height="80" fill="white"/>
</clipPath>
</defs>
</svg>
