<svg width="80" height="80" viewBox="0 0 80 80" fill="none" xmlns="http://www.w3.org/2000/svg">
<path d="M36.8784 21.6907H43.1925V78.8281H36.8784V21.6907Z" fill="currentColor"/>
<path d="M36.8784 21.6907H43.1925V24.5319H36.8784V21.6907Z" fill="currentColor"/>
<path d="M20.9365 47.1027H59.1335V53.4161H20.9365V47.1027Z" fill="currentColor"/>
<path d="M20.9365 50.8905H59.1335V53.4161H20.9365V50.8905Z" fill="currentColor"/>
<path d="M58.9762 13.7988H21.0947C19.3516 13.7988 17.938 12.3859 17.938 10.6421V4.32861C17.938 2.58545 19.3516 1.17188 21.0947 1.17188H58.9762C60.7194 1.17188 62.1329 2.58545 62.1329 4.32861V10.6421C62.1329 12.3859 60.7194 13.7988 58.9762 13.7988Z" fill="currentColor"/>
<path d="M58.9761 1.17188H55.8193C57.5625 1.17188 58.9761 2.58545 58.9761 4.32861V10.6421C58.9761 12.3859 57.5625 13.7988 55.8193 13.7988H58.9761C60.7192 13.7988 62.1328 12.3859 62.1328 10.6421V4.32861C62.1328 2.58545 60.7192 1.17188 58.9761 1.17188Z" fill="currentColor"/>
<path d="M40.0354 21.6907H53.6206L60.5542 78.8281H66.8683L58.9764 13.7988H21.095L13.2031 78.8281H19.5166L26.4508 21.6907H40.0354Z" fill="currentColor"/>
<path d="M16.6748 78.8281H19.516L26.4502 21.6907H25.567C24.4495 21.6907 23.5077 22.525 23.3734 23.634L16.6748 78.8281Z" fill="currentColor"/>
<path d="M66.868 78.8281L58.9762 13.7988H21.0947L20.7114 16.9556H55.1194C55.9177 16.9556 56.5903 17.5513 56.6862 18.3441L64.0269 78.8281H66.868Z" fill="currentColor"/>
<path d="M68.0316 78.6871L60.2746 14.7717C62.0288 14.2188 63.305 12.5769 63.305 10.6421V4.32861C63.305 1.94214 61.3629 0 58.9764 0H30.592C29.945 0 29.4201 0.524902 29.4201 1.17188C29.4201 1.81885 29.945 2.34375 30.592 2.34375H58.9764C60.0708 2.34375 60.9613 3.23425 60.9613 4.32861V10.6421C60.9613 11.7365 60.0708 12.627 58.9764 12.627H21.0949C20.0006 12.627 19.1101 11.7365 19.1101 10.6421V4.32861C19.1101 3.23425 20.0006 2.34375 21.0949 2.34375H25.1184C25.766 2.34375 26.2903 1.81885 26.2903 1.17188C26.2903 0.524902 25.766 0 25.1184 0H21.0949C18.7085 0 16.7663 1.94214 16.7663 4.32861V10.6421C16.7663 12.5769 18.042 14.2188 19.7967 14.7717L12.0398 78.6871C11.9995 79.0198 12.1032 79.3542 12.326 79.6051C12.5488 79.856 12.868 80 13.2031 80H19.5166C20.1092 80 20.6085 79.5575 20.6799 78.9691L22.2467 66.0565C22.3248 65.4138 21.867 64.8297 21.2243 64.7522C20.5816 64.6753 19.9981 65.1318 19.92 65.7739L18.4784 77.6562H14.5257L22.1332 14.9707H57.9382L65.545 77.6562H61.593L54.7833 21.5497C54.7119 20.9613 54.2126 20.5188 53.62 20.5188H26.4508C25.8581 20.5188 25.3589 20.9613 25.2874 21.5497L20.5877 60.2771C20.5096 60.9192 20.9674 61.5033 21.6101 61.5814C22.2528 61.6602 22.8363 61.2018 22.9144 60.5591L23.6389 54.5874H35.7068V78.8281C35.7068 79.4751 36.2317 80 36.8786 80H43.1921C43.8397 80 44.364 79.4751 44.364 78.8281V54.5874H56.4319L59.3915 78.9691C59.4629 79.5575 59.9621 80 60.5542 80H66.8676C67.2033 80 67.5226 79.856 67.7453 79.6051C67.9675 79.3542 68.0719 79.0198 68.0316 78.6871ZM38.0505 45.9314V22.8625H42.0202V45.9314H38.0505ZM27.489 22.8625H35.7068V45.9314H24.6893L27.489 22.8625ZM42.0202 77.6562H38.0505V54.5874H42.0202V77.6562ZM23.9233 52.2437L24.4049 48.2751H46.994C47.641 48.2751 48.1659 47.7502 48.1659 47.1033C48.1659 46.4557 47.641 45.9314 46.994 45.9314H44.3646V22.8625H52.5824L55.3821 45.9314H52.4572C51.8103 45.9314 51.2854 46.4557 51.2854 47.1033C51.2854 47.7502 51.8103 48.2751 52.4572 48.2751H55.6659L56.148 52.2437H23.9233Z" fill="currentColor"/>
</svg>
