<svg width="80" height="80" viewBox="0 0 80 80" fill="none" xmlns="http://www.w3.org/2000/svg">
<path d="M57.5781 40L34.0625 43.5156L18.3594 40C18.3594 40 10.5469 40 10.5469 29.375C10.5469 18.75 18.3594 18.75 18.3594 18.75H57.5781V40Z" fill="#AB7B64"/>
<path d="M57.5779 38.0688V40L34.9428 42.4477L18.3592 40C18.3592 40 14.6107 40 12.3076 36.4672C13.5982 36.875 14.5717 36.875 14.5717 36.875H51.4826C52.9717 37.6734 54.6748 38.125 56.4842 38.125C56.8529 38.125 57.2186 38.1063 57.5779 38.0688Z" fill="#9A6A53"/>
<path d="M27.1093 26.7969H10.7202C10.8437 25.925 11.0312 25.1469 11.2655 24.4531H27.1093C27.7562 24.4531 28.2812 24.9781 28.2812 25.625C28.2812 26.2719 27.7562 26.7969 27.1093 26.7969Z" fill="#AB7B64"/>
<path d="M34.6874 33.125C34.6874 33.7719 34.1624 34.2969 33.5155 34.2969H11.2655C11.0312 33.6031 10.8437 32.825 10.7202 31.9531H33.5155C34.1624 31.9531 34.6874 32.478 34.6874 33.125Z" fill="#AB7B64"/>
<path d="M39.375 25.625C39.375 26.2719 38.85 26.7969 38.2031 26.7969H33.5156C32.8688 26.7969 32.3438 26.2719 32.3438 25.625C32.3438 24.9781 32.8688 24.4531 33.5156 24.4531H38.2031C38.85 24.4531 39.375 24.978 39.375 25.625Z" fill="#AB7B64"/>
<path d="M48.4375 33.125C48.4375 33.7719 47.9125 34.2969 47.2656 34.2969H41.0156C40.3688 34.2969 39.8438 33.7719 39.8438 33.125C39.8438 32.4781 40.3688 31.9531 41.0156 31.9531H47.2656C47.9125 31.9531 48.4375 32.478 48.4375 33.125Z" fill="#AB7B64"/>
<path d="M28.2812 25.625C28.2812 26.2719 27.7562 26.7969 27.1093 26.7969H10.7202C10.8437 25.925 11.0312 25.1469 11.2655 24.4531H27.1093C27.7562 24.4531 28.2812 24.978 28.2812 25.625Z" fill="#9A6A53"/>
<path d="M39.375 25.625C39.375 26.2719 38.85 26.7969 38.2031 26.7969H33.5156C32.8688 26.7969 32.3438 26.2719 32.3438 25.625C32.3438 24.9781 32.8688 24.4531 33.5156 24.4531H38.2031C38.85 24.4531 39.375 24.978 39.375 25.625Z" fill="#9A6A53"/>
<path d="M34.6874 33.125C34.6874 33.7719 34.1624 34.2969 33.5155 34.2969H11.2655C11.0312 33.6031 10.8437 32.825 10.7202 31.9531H33.5155C34.1624 31.9531 34.6874 32.478 34.6874 33.125Z" fill="#9A6A53"/>
<path d="M50.3906 34.2969H41.0156C40.3688 34.2969 39.8438 33.7719 39.8438 33.125C39.8438 32.4781 40.3688 31.9531 41.0156 31.9531H48.8281H48.8312L50.3906 34.2969Z" fill="#9A6A53"/>
<path d="M57.5781 40C63.4461 40 68.2031 35.243 68.2031 29.375C68.2031 23.507 63.4461 18.75 57.5781 18.75C51.7101 18.75 46.9531 23.507 46.9531 29.375C46.9531 35.243 51.7101 40 57.5781 40Z" fill="#F3D69E"/>
<path d="M68.2029 29.375C68.2029 35.2438 63.4467 40 57.5779 40C54.7107 40 52.1092 38.8641 50.1982 37.0172C51.8686 38.1125 53.867 38.75 56.0154 38.75C61.8842 38.75 66.6404 33.9938 66.6404 28.125C66.6404 25.1234 65.3967 22.4125 63.3951 20.4828C66.2904 22.3813 68.2029 25.6545 68.2029 29.375Z" fill="#EFCB83"/>
<path d="M52.2288 33.1205C51.793 33.1205 51.3747 32.8764 51.1725 32.4578C50.7056 31.4909 50.4688 30.4536 50.4688 29.375C50.4688 25.4548 53.658 22.2656 57.5781 22.2656C58.2255 22.2656 58.75 22.7902 58.75 23.4375C58.75 24.0848 58.2255 24.6094 57.5781 24.6094C54.9505 24.6094 52.8125 26.7473 52.8125 29.375C52.8125 30.0978 52.9709 30.7922 53.2831 31.4389C53.5645 32.0216 53.3202 32.7223 52.7373 33.0037C52.5731 33.083 52.3994 33.1205 52.2288 33.1205Z" fill="#EDC472"/>
<path d="M57.5781 36.4844C56.8311 36.4844 56.0942 36.3683 55.3878 36.1391C54.7722 35.9395 54.4349 35.2784 54.6347 34.663C54.8344 34.047 55.4958 33.7094 56.1108 33.9098C56.5833 34.063 57.077 34.1408 57.5781 34.1408C60.2058 34.1408 62.3438 32.0028 62.3438 29.3752C62.3438 28.7278 62.8683 28.2033 63.5156 28.2033C64.163 28.2033 64.6875 28.7278 64.6875 29.3752C64.6875 33.295 61.4983 36.4844 57.5781 36.4844Z" fill="#EDC472"/>
<path d="M46.9531 61.25H8.98438C8.98438 61.25 1.17188 61.435 1.17188 50.7175C1.17188 40 8.98438 40 8.98438 40H46.9531V61.25Z" fill="#AB7B64"/>
<path d="M46.953 58.125V61.25H8.98428C8.98428 61.25 5.44834 61.3328 3.13428 58.125H46.953Z" fill="#9A6A53"/>
<path d="M9.43564 47.7344H1.40283C1.54971 46.8578 1.76064 46.0797 2.02002 45.3906H9.43564C10.0825 45.3906 10.6075 45.9156 10.6075 46.5625C10.6075 47.2094 10.0825 47.7344 9.43564 47.7344Z" fill="#AB7B64"/>
<path d="M17.0312 54.5312C17.0312 55.1781 16.5062 55.7031 15.8594 55.7031H1.90313C1.66719 55.0109 1.47813 54.2344 1.35156 53.3594H15.8594C16.5062 53.3594 17.0312 53.8842 17.0312 54.5312Z" fill="#AB7B64"/>
<path d="M38.125 54.5312C38.125 55.1781 37.6 55.7031 36.9531 55.7031H28.3594C27.7125 55.7031 27.1875 55.1781 27.1875 54.5312C27.1875 53.8844 27.7125 53.3594 28.3594 53.3594H36.9531C37.6 53.3594 38.125 53.8842 38.125 54.5312Z" fill="#AB7B64"/>
<path d="M37.1094 47.7344H19.9219C19.275 47.7344 18.75 47.2094 18.75 46.5625C18.75 45.9156 19.275 45.3906 19.9219 45.3906H37.1094C37.7563 45.3906 38.2813 45.9156 38.2813 46.5625C38.2813 47.2094 37.7563 47.7344 37.1094 47.7344Z" fill="#AB7B64"/>
<path d="M68.2033 40H46.2534V61.25L68.3795 61.2475L68.2033 40Z" fill="#AB7B64"/>
<path d="M68.3797 61.2467L46.9531 61.25V58.125L68.3531 58.1217L68.3797 61.2467Z" fill="#9A6A53"/>
<path d="M68.2031 61.25C74.0711 61.25 78.8281 56.493 78.8281 50.625C78.8281 44.757 74.0711 40 68.2031 40C62.3351 40 57.5781 44.757 57.5781 50.625C57.5781 56.493 62.3351 61.25 68.2031 61.25Z" fill="#F3D69E"/>
<path d="M66.4706 57.4767C66.357 57.4767 66.2417 57.4602 66.1277 57.4252C63.1638 56.5191 61.0938 53.7228 61.0938 50.625C61.0938 48.1397 62.3611 45.8753 64.4838 44.5678C65.0347 44.2284 65.7567 44.3998 66.0961 44.9509C66.4356 45.502 66.2639 46.2239 65.713 46.5633C64.2881 47.4409 63.4375 48.9592 63.4375 50.625C63.4375 52.7017 64.8255 54.5764 66.8128 55.1841C67.4319 55.3733 67.7802 56.0283 67.5908 56.6472C67.4366 57.1519 66.9723 57.4767 66.4706 57.4767Z" fill="#EDC472"/>
<path d="M71.8023 56.5169C71.4495 56.5169 71.1009 56.3583 70.8703 56.0566C70.4772 55.5423 70.5756 54.8069 71.0898 54.4139C72.284 53.5016 72.9689 52.1205 72.9689 50.625C72.9689 49.0419 72.1822 47.5647 70.8642 46.6738C70.3281 46.3114 70.1873 45.5828 70.5498 45.0466C70.9123 44.5106 71.6408 44.3695 72.177 44.7322C74.1404 46.0595 75.3126 48.2623 75.3126 50.625C75.3126 52.8569 74.2921 54.9169 72.5129 56.2763C72.3006 56.4386 72.0504 56.5169 71.8023 56.5169Z" fill="#EDC472"/>
<path d="M38.2812 46.5625C38.2812 47.2094 37.7563 47.7344 37.1094 47.7344H19.9219C19.275 47.7344 18.75 47.2094 18.75 46.5625C18.75 45.9156 19.275 45.3906 19.9219 45.3906H37.1094C37.7563 45.3906 38.2812 45.9155 38.2812 46.5625Z" fill="#9A6A53"/>
<path d="M10.608 46.5625C10.608 47.2094 10.083 47.7344 9.43613 47.7344H1.40332C1.5502 46.8578 1.76113 46.0797 2.02051 45.3906H9.43613C10.083 45.3906 10.608 45.9155 10.608 46.5625Z" fill="#9A6A53"/>
<path d="M17.0312 54.5312C17.0312 55.1781 16.5062 55.7031 15.8594 55.7031H1.90313C1.66719 55.0109 1.47813 54.2344 1.35156 53.3594H15.8594C16.5062 53.3594 17.0312 53.8842 17.0312 54.5312Z" fill="#9A6A53"/>
<path d="M38.125 54.5312C38.125 55.1781 37.6 55.7031 36.9531 55.7031H28.3594C27.7125 55.7031 27.1875 55.1781 27.1875 54.5312C27.1875 53.8844 27.7125 53.3594 28.3594 53.3594H36.9531C37.6 53.3594 38.125 53.8842 38.125 54.5312Z" fill="#9A6A53"/>
<path d="M46.9531 61.25C52.8211 61.25 57.5781 56.493 57.5781 50.625C57.5781 44.757 52.8211 40 46.9531 40C41.0851 40 36.3281 44.757 36.3281 50.625C36.3281 56.493 41.0851 61.25 46.9531 61.25Z" fill="#F3D69E"/>
<path d="M43.8936 56.8845C43.6873 56.8845 43.4787 56.8302 43.2892 56.7159C41.1639 55.4336 39.8438 53.0995 39.8438 50.625C39.8438 49.5088 40.1106 48.3952 40.6156 47.4045C40.9095 46.8283 41.6156 46.5988 42.1919 46.8928C42.7684 47.1867 42.9977 47.8923 42.7036 48.4691C42.3611 49.1408 42.1875 49.8663 42.1875 50.625C42.1875 52.3086 43.052 53.8355 44.5002 54.7092C45.0542 55.0438 45.2325 55.7639 44.8981 56.3181C44.6778 56.6827 44.2906 56.8845 43.8936 56.8845Z" fill="#EDC472"/>
<path d="M49.2625 57.2672C48.8061 57.2672 48.3723 56.9989 48.1831 56.5522C47.9306 55.9564 48.2089 55.2684 48.8048 55.0159C50.575 54.2661 51.7188 52.5425 51.7188 50.625C51.7188 47.9973 49.5808 45.8594 46.9531 45.8594C46.3058 45.8594 45.7812 45.3348 45.7812 44.6875C45.7812 44.0402 46.3058 43.5156 46.9531 43.5156C50.8733 43.5156 54.0625 46.7048 54.0625 50.625C54.0625 53.4856 52.3577 56.0564 49.7192 57.1741C49.57 57.2373 49.415 57.2672 49.2625 57.2672Z" fill="#EDC472"/>
<path d="M78.828 50.625C78.828 56.4937 74.0718 61.25 68.203 61.25C63.8937 61.25 60.1843 58.6859 58.5171 55C60.4483 57.6516 63.5765 59.375 67.1093 59.375C72.978 59.375 77.7343 54.6187 77.7343 48.75C77.7343 47.1906 77.3983 45.7109 76.7952 44.3766C78.0749 46.1295 78.828 48.2891 78.828 50.625Z" fill="#EFCB83"/>
<path d="M57.578 50.625C57.578 51.4109 57.4921 52.175 57.3312 52.9125C56.2859 57.6812 52.0359 61.25 46.953 61.25C42.6437 61.25 38.9343 58.6859 37.2671 55C39.1983 57.6516 42.3265 59.375 45.8593 59.375C51.728 59.375 56.4843 54.6187 56.4843 48.75C56.4843 47.1906 56.1484 45.7109 55.5452 44.3766C56.0171 45.0203 56.4155 45.7203 56.7312 46.4625C57.2765 47.7406 57.578 49.1469 57.578 50.625Z" fill="#EFCB83"/>
<path d="M77.8736 43.8669C77.5027 43.3367 76.7717 43.2077 76.2416 43.5787C75.7113 43.95 75.5823 44.6806 75.9534 45.2108C77.0673 46.8023 77.6562 48.6744 77.6562 50.625C77.6562 55.8373 73.4155 60.0781 68.2031 60.0781C62.9908 60.0781 58.75 55.8373 58.75 50.625C58.75 45.4127 62.9908 41.1719 68.2031 41.1719C69.5917 41.1719 70.9287 41.4656 72.1773 42.045C72.765 42.3178 73.4614 42.0623 73.7336 41.4753C74.0061 40.8881 73.7509 40.1914 73.1639 39.9191C71.6039 39.195 69.9348 38.8281 68.2031 38.8281H64.6278C67.5075 36.675 69.375 33.2389 69.375 29.375C69.375 22.8702 64.083 17.5781 57.5781 17.5781H40.7812C40.1339 17.5781 39.6094 18.1027 39.6094 18.75C39.6094 19.3973 40.1339 19.9219 40.7812 19.9219H50.5284C47.6487 22.0748 45.7812 25.5109 45.7812 29.375C45.7812 30.2606 45.8825 31.1227 46.0684 31.9531H41.0156C40.3683 31.9531 39.8438 32.4777 39.8438 33.125C39.8438 33.7723 40.3683 34.2969 41.0156 34.2969H46.8612C47.6909 36.0961 48.9577 37.6537 50.5284 38.8281H46.9531H33.2812C32.6339 38.8281 32.1094 39.3527 32.1094 40C32.1094 40.6473 32.6339 41.1719 33.2812 41.1719H39.9034C38.4242 42.2778 37.2142 43.7236 36.3852 45.3906H19.9219C19.2745 45.3906 18.75 45.9152 18.75 46.5625C18.75 47.2098 19.2745 47.7344 19.9219 47.7344H35.5158C35.2817 48.6597 35.1562 49.6278 35.1562 50.625C35.1562 51.5664 35.2703 52.4811 35.4797 53.3594H28.3594C27.712 53.3594 27.1875 53.8839 27.1875 54.5312C27.1875 55.1786 27.712 55.7031 28.3594 55.7031H36.307C37.1372 57.4367 38.378 58.9375 39.9036 60.0781H22.9725C22.3252 60.0781 21.8006 60.6027 21.8006 61.25C21.8006 61.8973 22.3252 62.4219 22.9725 62.4219H68.2031C74.708 62.4219 80 57.1298 80 50.625C80 48.1911 79.2647 45.8541 77.8736 43.8669ZM48.125 29.375C48.125 24.1627 52.3658 19.9219 57.5781 19.9219C62.7905 19.9219 67.0312 24.1625 67.0312 29.375C67.0312 34.5875 62.7905 38.8281 57.5781 38.8281C52.3658 38.8281 48.125 34.5873 48.125 29.375ZM61.1534 41.1719C59.6411 42.3027 58.4081 43.7873 57.5781 45.5019C56.748 43.7873 55.5152 42.3027 54.0028 41.1719H61.1534ZM37.5 50.625C37.5 45.4127 41.7408 41.1719 46.9531 41.1719C52.1655 41.1719 56.4062 45.4125 56.4062 50.625C56.4062 55.8375 52.1655 60.0781 46.9531 60.0781C41.7408 60.0781 37.5 55.8373 37.5 50.625ZM54.0028 60.0781C55.5152 58.9473 56.7481 57.4627 57.5781 55.7481C58.4083 57.4627 59.6411 58.9473 61.1534 60.0781H54.0028Z" fill="black"/>
<path d="M65.713 46.5633C66.2639 46.2239 66.4356 45.502 66.0961 44.9509C65.7567 44.3998 65.0347 44.2284 64.4838 44.5678C62.3611 45.8752 61.0938 48.1395 61.0938 50.625C61.0938 53.7228 63.1638 56.5192 66.1277 57.4252C66.7297 57.6145 67.4034 57.2716 67.5908 56.6472C67.7802 56.0283 67.4317 55.3733 66.8128 55.1841C64.8255 54.5764 63.4375 52.7017 63.4375 50.625C63.4375 48.9592 64.2881 47.4409 65.713 46.5633Z" fill="black"/>
<path d="M71.0898 54.4141C70.5756 54.807 70.4772 55.5425 70.8703 56.0567C71.2651 56.5738 72.0031 56.667 72.5129 56.2763C74.292 54.9167 75.3125 52.8569 75.3125 50.625C75.3125 48.2625 74.1403 46.0595 72.177 44.7322C71.6408 44.3695 70.9123 44.5106 70.5498 45.0466C70.1873 45.5828 70.3281 46.3114 70.8642 46.6738C72.182 47.5647 72.9687 49.0419 72.9687 50.625C72.9687 52.1205 72.2839 53.5016 71.0898 54.4141Z" fill="black"/>
<path d="M17.4609 60.0781H8.98438C8.98016 60.0781 8.96813 60.0783 8.96375 60.0783C8.93969 60.075 6.62672 60.082 4.78875 58.2645C4.09625 57.5797 3.55078 56.7231 3.15156 55.7031H15.8594C16.5067 55.7031 17.0312 55.1786 17.0312 54.5312C17.0312 53.8839 16.5067 53.3594 15.8594 53.3594H2.53766C2.26109 51.6872 2.28422 49.3356 2.59797 47.7344H11.3281C11.9755 47.7344 12.5 47.2098 12.5 46.5625C12.5 45.9152 11.9755 45.3906 11.3281 45.3906H3.29641C5.08469 41.2842 8.78438 41.1744 8.98438 41.1719H27.8125C28.4598 41.1719 28.9844 40.6473 28.9844 40C28.9844 39.3527 28.4598 38.8281 27.8125 38.8281C27.5784 38.7697 17.9731 38.9425 17.7758 38.7652C16.4484 38.5469 13.8389 37.6823 12.5211 34.2969H33.5156C34.163 34.2969 34.6875 33.7723 34.6875 33.125C34.6875 32.4777 34.163 31.9531 33.5156 31.9531H11.9062C11.6581 30.4611 11.6581 28.2884 11.9083 26.7969H27.1094C27.7567 26.7969 28.2812 26.2723 28.2812 25.625C28.2812 24.9777 27.7567 24.4531 27.1094 24.4531H12.5244C14.2477 20.0383 18.1537 19.9245 18.3594 19.9219H35.3125C35.9598 19.9219 36.4844 19.3973 36.4844 18.75C36.4844 18.1027 35.9598 17.5781 35.3125 17.5781H18.3594C18.265 17.5781 16.0198 17.5955 13.7941 19.1091C11.7781 20.4798 9.375 23.3737 9.375 29.375C9.375 34.2945 10.9756 37.1598 12.7927 38.8281H8.98438C8.88984 38.8281 6.64234 38.8456 4.41531 40.3733C2.40094 41.7548 0 44.6709 0 50.7173C0 54.7959 1.06984 57.9084 3.17969 59.9691C5.60047 62.3333 8.53906 62.4219 8.96422 62.4219C8.97484 62.4219 8.98406 62.4219 8.99156 62.4217H17.4609C18.1083 62.4217 18.6328 61.8972 18.6328 61.2498C18.6328 60.6025 18.1083 60.0781 17.4609 60.0781Z" fill="black"/>
<path d="M43.2892 56.7159C43.8344 57.0472 44.5616 56.8769 44.8981 56.318C45.2325 55.7638 45.0542 55.0436 44.5002 54.7091C43.052 53.8353 42.1875 52.3086 42.1875 50.625C42.1875 49.8664 42.3611 49.1409 42.7037 48.4689C42.9978 47.8923 42.7686 47.1866 42.192 46.8927C41.6158 46.5986 40.9097 46.8281 40.6158 47.4044C40.1106 48.3952 39.8438 49.5088 39.8438 50.625C39.8438 53.0995 41.1639 55.4336 43.2892 56.7159Z" fill="black"/>
<path d="M46.9531 45.8594C49.5808 45.8594 51.7188 47.9973 51.7188 50.625C51.7188 52.5425 50.575 54.2662 48.805 55.0161C48.2091 55.2686 47.9306 55.9566 48.1833 56.5523C48.4358 57.1544 49.1381 57.4248 49.7194 57.1741C52.3577 56.0562 54.0625 53.4855 54.0625 50.625C54.0625 46.7048 50.8733 43.5156 46.9531 43.5156C46.3058 43.5156 45.7812 44.0402 45.7812 44.6875C45.7812 45.3348 46.3058 45.8594 46.9531 45.8594Z" fill="black"/>
<path d="M57.5781 24.6094C58.2255 24.6094 58.75 24.0848 58.75 23.4375C58.75 22.7902 58.2255 22.2656 57.5781 22.2656C53.658 22.2656 50.4688 25.4548 50.4688 29.375C50.4688 30.4536 50.7056 31.4909 51.1725 32.4578C51.4548 33.0466 52.1673 33.2827 52.7373 33.0036C53.3202 32.7222 53.5645 32.0216 53.2831 31.4387C52.9709 30.7922 52.8125 30.0977 52.8125 29.375C52.8125 26.7472 54.9505 24.6094 57.5781 24.6094Z" fill="black"/>
<path d="M63.5156 28.2031C62.8682 28.2031 62.3437 28.7277 62.3437 29.375C62.3437 32.0027 60.2057 34.1406 57.5781 34.1406C57.077 34.1406 56.5834 34.063 56.1107 33.9097C55.4956 33.7094 54.8343 34.0469 54.6346 34.6628C54.435 35.2783 54.7721 35.9394 55.3878 36.1389C56.0942 36.3681 56.8309 36.4842 57.5781 36.4842C61.4982 36.4842 64.6875 33.295 64.6875 29.3748C64.6875 28.7277 64.1629 28.2031 63.5156 28.2031Z" fill="black"/>
<path d="M32.3438 25.625C32.3438 26.2723 32.8683 26.7969 33.5156 26.7969H38.2031C38.8505 26.7969 39.375 26.2723 39.375 25.625C39.375 24.9777 38.8505 24.4531 38.2031 24.4531H33.5156C32.8683 24.4531 32.3438 24.9777 32.3438 25.625Z" fill="black"/>
</svg>
